<mxfile host="Electron" agent="Mozilla/5.0 (Macintosh; Intel Mac OS X 10_15_7) AppleWebKit/537.36 (KHTML, like Gecko) draw.io/28.1.2 Chrome/138.0.7204.243 Electron/37.4.0 Safari/537.36" version="28.1.2">
  <diagram name="第 1 页" id="Op_Hxy2KZqNl0zdX5QgX">
    <mxGraphModel dx="2017" dy="1726" grid="0" gridSize="10" guides="1" tooltips="1" connect="1" arrows="1" fold="1" page="0" pageScale="1" pageWidth="100" pageHeight="5000" background="none" math="0" shadow="0">
      <root>
        <mxCell id="0" />
        <mxCell id="1" parent="0" />
        <mxCell id="GzCPJPZLQ2TcHpipVKt4-18" value="" style="group" parent="1" vertex="1" connectable="0">
          <mxGeometry x="40" y="10" width="560" height="320" as="geometry" />
        </mxCell>
        <mxCell id="GzCPJPZLQ2TcHpipVKt4-1" value="" style="rounded=0;whiteSpace=wrap;html=1;fillColor=#ffe6cc;strokeColor=#d79b00;" parent="GzCPJPZLQ2TcHpipVKt4-18" vertex="1">
          <mxGeometry width="560" height="320" as="geometry" />
        </mxCell>
        <mxCell id="GzCPJPZLQ2TcHpipVKt4-2" value="&lt;font style=&quot;font-size: 36px;&quot;&gt;JDK&lt;/font&gt;" style="text;html=1;align=center;verticalAlign=middle;whiteSpace=wrap;rounded=0;" parent="GzCPJPZLQ2TcHpipVKt4-18" vertex="1">
          <mxGeometry x="250" y="10" width="60" height="30" as="geometry" />
        </mxCell>
        <mxCell id="GzCPJPZLQ2TcHpipVKt4-4" value="" style="rounded=1;whiteSpace=wrap;html=1;fillColor=#dae8fc;strokeColor=#6c8ebf;" parent="GzCPJPZLQ2TcHpipVKt4-18" vertex="1">
          <mxGeometry x="210" y="90" width="340" height="200" as="geometry" />
        </mxCell>
        <mxCell id="GzCPJPZLQ2TcHpipVKt4-5" value="&lt;font style=&quot;font-size: 36px;&quot;&gt;开发工具&lt;/font&gt;" style="rhombus;whiteSpace=wrap;html=1;fillColor=#fff2cc;strokeColor=#d6b656;" parent="GzCPJPZLQ2TcHpipVKt4-18" vertex="1">
          <mxGeometry x="10" y="90" width="190" height="190" as="geometry" />
        </mxCell>
        <mxCell id="GzCPJPZLQ2TcHpipVKt4-6" value="&lt;font style=&quot;font-size: 36px;&quot;&gt;运行类库&lt;/font&gt;" style="ellipse;whiteSpace=wrap;html=1;fillColor=#d5e8d4;strokeColor=#82b366;" parent="GzCPJPZLQ2TcHpipVKt4-18" vertex="1">
          <mxGeometry x="220" y="150" width="160" height="100" as="geometry" />
        </mxCell>
        <mxCell id="GzCPJPZLQ2TcHpipVKt4-8" value="&lt;font style=&quot;font-size: 36px;&quot;&gt;JVM&lt;/font&gt;" style="whiteSpace=wrap;html=1;aspect=fixed;fillColor=#f8cecc;strokeColor=#b85450;" parent="GzCPJPZLQ2TcHpipVKt4-18" vertex="1">
          <mxGeometry x="390" y="125" width="150" height="150" as="geometry" />
        </mxCell>
        <mxCell id="GzCPJPZLQ2TcHpipVKt4-9" value="&lt;font style=&quot;font-size: 36px;&quot;&gt;JRE&lt;/font&gt;" style="text;html=1;align=center;verticalAlign=middle;whiteSpace=wrap;rounded=0;" parent="GzCPJPZLQ2TcHpipVKt4-18" vertex="1">
          <mxGeometry x="274" y="100" width="60" height="30" as="geometry" />
        </mxCell>
        <mxCell id="GzCPJPZLQ2TcHpipVKt4-26" value="" style="group" parent="1" vertex="1" connectable="0">
          <mxGeometry x="40" y="400" width="600" height="760" as="geometry" />
        </mxCell>
        <mxCell id="GzCPJPZLQ2TcHpipVKt4-10" value="" style="rounded=1;whiteSpace=wrap;html=1;fillColor=#fff2cc;strokeColor=#d6b656;" parent="GzCPJPZLQ2TcHpipVKt4-26" vertex="1">
          <mxGeometry width="600" height="760" as="geometry" />
        </mxCell>
        <mxCell id="GzCPJPZLQ2TcHpipVKt4-12" value="" style="rounded=1;whiteSpace=wrap;html=1;fillColor=#ffe6cc;strokeColor=#d79b00;" parent="GzCPJPZLQ2TcHpipVKt4-26" vertex="1">
          <mxGeometry x="34" y="20" width="526" height="450" as="geometry" />
        </mxCell>
        <mxCell id="GzCPJPZLQ2TcHpipVKt4-11" value="&lt;font style=&quot;font-size: 48px;&quot;&gt;虚拟机内存&lt;/font&gt;" style="text;html=1;align=center;verticalAlign=middle;whiteSpace=wrap;rounded=0;" parent="GzCPJPZLQ2TcHpipVKt4-26" vertex="1">
          <mxGeometry x="164" y="40" width="260" height="50" as="geometry" />
        </mxCell>
        <mxCell id="GzCPJPZLQ2TcHpipVKt4-14" value="&lt;font style=&quot;font-size: 48px;&quot;&gt;线程&lt;/font&gt;" style="rounded=0;whiteSpace=wrap;html=1;fillColor=#dae8fc;strokeColor=#6c8ebf;" parent="GzCPJPZLQ2TcHpipVKt4-26" vertex="1">
          <mxGeometry x="70" y="245" width="120" height="190" as="geometry" />
        </mxCell>
        <mxCell id="GzCPJPZLQ2TcHpipVKt4-15" value="&lt;font style=&quot;font-size: 48px;&quot;&gt;线程&lt;/font&gt;" style="rounded=0;whiteSpace=wrap;html=1;fillColor=#dae8fc;strokeColor=#6c8ebf;" parent="GzCPJPZLQ2TcHpipVKt4-26" vertex="1">
          <mxGeometry x="240" y="245" width="120" height="190" as="geometry" />
        </mxCell>
        <mxCell id="GzCPJPZLQ2TcHpipVKt4-16" value="&lt;font style=&quot;font-size: 48px;&quot;&gt;线程&lt;/font&gt;" style="rounded=0;whiteSpace=wrap;html=1;fillColor=#dae8fc;strokeColor=#6c8ebf;" parent="GzCPJPZLQ2TcHpipVKt4-26" vertex="1">
          <mxGeometry x="410" y="245" width="120" height="190" as="geometry" />
        </mxCell>
        <mxCell id="GzCPJPZLQ2TcHpipVKt4-17" value="&lt;font style=&quot;font-size: 48px;&quot;&gt;堆&lt;/font&gt;" style="rounded=1;whiteSpace=wrap;html=1;fillColor=#d5e8d4;strokeColor=#82b366;" parent="GzCPJPZLQ2TcHpipVKt4-26" vertex="1">
          <mxGeometry x="70" y="120" width="460" height="110" as="geometry" />
        </mxCell>
        <mxCell id="GzCPJPZLQ2TcHpipVKt4-19" value="" style="rounded=1;whiteSpace=wrap;html=1;fillColor=#ffe6cc;strokeColor=#d79b00;" parent="GzCPJPZLQ2TcHpipVKt4-26" vertex="1">
          <mxGeometry x="37" y="500" width="526" height="230" as="geometry" />
        </mxCell>
        <mxCell id="GzCPJPZLQ2TcHpipVKt4-21" value="&lt;font style=&quot;font-size: 48px;&quot;&gt;本地内存&lt;/font&gt;" style="text;html=1;align=center;verticalAlign=middle;whiteSpace=wrap;rounded=0;" parent="GzCPJPZLQ2TcHpipVKt4-26" vertex="1">
          <mxGeometry x="167" y="510" width="260" height="50" as="geometry" />
        </mxCell>
        <mxCell id="GzCPJPZLQ2TcHpipVKt4-23" value="&lt;font style=&quot;font-size: 48px;&quot;&gt;元空间&lt;/font&gt;" style="whiteSpace=wrap;html=1;aspect=fixed;fillColor=#f8cecc;strokeColor=#b85450;" parent="GzCPJPZLQ2TcHpipVKt4-26" vertex="1">
          <mxGeometry x="70" y="570" width="150" height="150" as="geometry" />
        </mxCell>
        <mxCell id="GzCPJPZLQ2TcHpipVKt4-25" value="&lt;font style=&quot;font-size: 48px;&quot;&gt;直接内存&lt;/font&gt;" style="ellipse;whiteSpace=wrap;html=1;fillColor=#e1d5e7;strokeColor=#9673a6;" parent="GzCPJPZLQ2TcHpipVKt4-26" vertex="1">
          <mxGeometry x="270" y="585" width="270" height="120" as="geometry" />
        </mxCell>
        <mxCell id="mt-OcB-cgGGMymgLebOA-7" value="" style="group" parent="1" vertex="1" connectable="0">
          <mxGeometry x="200" y="1240" width="400" height="430" as="geometry" />
        </mxCell>
        <mxCell id="mt-OcB-cgGGMymgLebOA-1" value="" style="rounded=1;whiteSpace=wrap;html=1;" parent="mt-OcB-cgGGMymgLebOA-7" vertex="1">
          <mxGeometry x="110" y="200" width="120" height="60" as="geometry" />
        </mxCell>
        <mxCell id="mt-OcB-cgGGMymgLebOA-2" value="" style="rounded=1;whiteSpace=wrap;html=1;fillColor=#fff2cc;strokeColor=#d6b656;" parent="mt-OcB-cgGGMymgLebOA-7" vertex="1">
          <mxGeometry width="400" height="430" as="geometry" />
        </mxCell>
        <mxCell id="mt-OcB-cgGGMymgLebOA-3" value="&lt;font style=&quot;font-size: 48px;&quot;&gt;线程&lt;/font&gt;" style="text;html=1;align=center;verticalAlign=middle;whiteSpace=wrap;rounded=0;" parent="mt-OcB-cgGGMymgLebOA-7" vertex="1">
          <mxGeometry x="140" y="10" width="120" height="60" as="geometry" />
        </mxCell>
        <mxCell id="mt-OcB-cgGGMymgLebOA-4" value="&lt;font style=&quot;font-size: 36px;&quot;&gt;虚拟机栈&lt;/font&gt;" style="rounded=1;whiteSpace=wrap;html=1;fillColor=#d5e8d4;strokeColor=#82b366;" parent="mt-OcB-cgGGMymgLebOA-7" vertex="1">
          <mxGeometry x="40" y="90" width="320" height="80" as="geometry" />
        </mxCell>
        <mxCell id="mt-OcB-cgGGMymgLebOA-5" value="&lt;font style=&quot;font-size: 36px;&quot;&gt;本地方法栈&lt;/font&gt;" style="rounded=1;whiteSpace=wrap;html=1;fillColor=#f8cecc;strokeColor=#b85450;" parent="mt-OcB-cgGGMymgLebOA-7" vertex="1">
          <mxGeometry x="40" y="205" width="320" height="80" as="geometry" />
        </mxCell>
        <mxCell id="mt-OcB-cgGGMymgLebOA-6" value="&lt;font style=&quot;font-size: 36px;&quot;&gt;程序计数器&lt;/font&gt;" style="rounded=1;whiteSpace=wrap;html=1;fillColor=#dae8fc;strokeColor=#6c8ebf;" parent="mt-OcB-cgGGMymgLebOA-7" vertex="1">
          <mxGeometry x="40" y="320" width="320" height="80" as="geometry" />
        </mxCell>
        <mxCell id="mt-OcB-cgGGMymgLebOA-44" value="" style="group" parent="1" vertex="1" connectable="0">
          <mxGeometry x="360" y="1720" width="240" height="270" as="geometry" />
        </mxCell>
        <mxCell id="mt-OcB-cgGGMymgLebOA-31" value="" style="rounded=0;whiteSpace=wrap;html=1;fillColor=#fff2cc;strokeColor=#d6b656;" parent="mt-OcB-cgGGMymgLebOA-44" vertex="1">
          <mxGeometry width="240" height="270" as="geometry" />
        </mxCell>
        <mxCell id="mt-OcB-cgGGMymgLebOA-33" value="&lt;font style=&quot;font-size: 30px;&quot;&gt;Heap&lt;/font&gt;" style="text;html=1;align=center;verticalAlign=middle;whiteSpace=wrap;rounded=0;" parent="mt-OcB-cgGGMymgLebOA-44" vertex="1">
          <mxGeometry x="45" y="10" width="150" height="30" as="geometry" />
        </mxCell>
        <mxCell id="mt-OcB-cgGGMymgLebOA-34" value="" style="rounded=1;whiteSpace=wrap;html=1;fillColor=#dae8fc;strokeColor=#6c8ebf;" parent="mt-OcB-cgGGMymgLebOA-44" vertex="1">
          <mxGeometry x="10" y="50" width="220" height="120" as="geometry" />
        </mxCell>
        <mxCell id="mt-OcB-cgGGMymgLebOA-35" value="" style="rounded=1;whiteSpace=wrap;html=1;fillColor=#f8cecc;strokeColor=#b85450;" parent="mt-OcB-cgGGMymgLebOA-44" vertex="1">
          <mxGeometry x="10" y="190" width="220" height="60" as="geometry" />
        </mxCell>
        <mxCell id="mt-OcB-cgGGMymgLebOA-36" value="&lt;font style=&quot;font-size: 12px;&quot;&gt;Eden&lt;/font&gt;" style="whiteSpace=wrap;html=1;aspect=fixed;fillColor=#ffe6cc;strokeColor=#d79b00;" parent="mt-OcB-cgGGMymgLebOA-44" vertex="1">
          <mxGeometry x="20" y="90" width="60" height="60" as="geometry" />
        </mxCell>
        <mxCell id="mt-OcB-cgGGMymgLebOA-39" value="Survivor0" style="whiteSpace=wrap;html=1;aspect=fixed;fillColor=#d5e8d4;strokeColor=#82b366;" parent="mt-OcB-cgGGMymgLebOA-44" vertex="1">
          <mxGeometry x="90" y="90" width="60" height="60" as="geometry" />
        </mxCell>
        <mxCell id="mt-OcB-cgGGMymgLebOA-40" value="Survivor1" style="whiteSpace=wrap;html=1;aspect=fixed;fillColor=#d5e8d4;strokeColor=#82b366;" parent="mt-OcB-cgGGMymgLebOA-44" vertex="1">
          <mxGeometry x="160" y="90" width="60" height="60" as="geometry" />
        </mxCell>
        <mxCell id="mt-OcB-cgGGMymgLebOA-41" value="&lt;font style=&quot;font-size: 18px;&quot;&gt;New Generation&lt;/font&gt;&lt;div&gt;&lt;br&gt;&lt;/div&gt;" style="text;html=1;align=center;verticalAlign=middle;whiteSpace=wrap;rounded=0;" parent="mt-OcB-cgGGMymgLebOA-44" vertex="1">
          <mxGeometry x="47.5" y="60" width="145" height="30" as="geometry" />
        </mxCell>
        <mxCell id="mt-OcB-cgGGMymgLebOA-42" value="&lt;font style=&quot;font-size: 18px;&quot;&gt;Old Generation&lt;/font&gt;&lt;div&gt;&lt;br&gt;&lt;/div&gt;" style="text;html=1;align=center;verticalAlign=middle;whiteSpace=wrap;rounded=0;" parent="mt-OcB-cgGGMymgLebOA-44" vertex="1">
          <mxGeometry x="47.5" y="210" width="145" height="30" as="geometry" />
        </mxCell>
        <mxCell id="mt-OcB-cgGGMymgLebOA-45" value="" style="group" parent="1" vertex="1" connectable="0">
          <mxGeometry x="40" y="1720" width="260" height="520" as="geometry" />
        </mxCell>
        <mxCell id="mt-OcB-cgGGMymgLebOA-30" value="" style="rounded=0;whiteSpace=wrap;html=1;fillColor=#fff2cc;strokeColor=#d6b656;" parent="mt-OcB-cgGGMymgLebOA-45" vertex="1">
          <mxGeometry width="260" height="520" as="geometry" />
        </mxCell>
        <mxCell id="mt-OcB-cgGGMymgLebOA-10" value="&lt;font style=&quot;font-size: 30px;&quot;&gt;虚拟机栈&lt;/font&gt;" style="text;html=1;align=center;verticalAlign=middle;whiteSpace=wrap;rounded=0;" parent="mt-OcB-cgGGMymgLebOA-45" vertex="1">
          <mxGeometry x="67.5" width="125" height="50" as="geometry" />
        </mxCell>
        <mxCell id="mt-OcB-cgGGMymgLebOA-16" value="" style="group" parent="mt-OcB-cgGGMymgLebOA-45" vertex="1" connectable="0">
          <mxGeometry x="10" y="50" width="240" height="210" as="geometry" />
        </mxCell>
        <mxCell id="mt-OcB-cgGGMymgLebOA-9" value="" style="rounded=1;whiteSpace=wrap;html=1;fillColor=#ffe6cc;strokeColor=#d79b00;" parent="mt-OcB-cgGGMymgLebOA-16" vertex="1">
          <mxGeometry width="240" height="210" as="geometry" />
        </mxCell>
        <mxCell id="mt-OcB-cgGGMymgLebOA-11" value="局部变量表" style="rounded=0;whiteSpace=wrap;html=1;fillColor=#dae8fc;strokeColor=#6c8ebf;" parent="mt-OcB-cgGGMymgLebOA-16" vertex="1">
          <mxGeometry x="20" y="50" width="200" height="30" as="geometry" />
        </mxCell>
        <mxCell id="mt-OcB-cgGGMymgLebOA-12" value="操作数栈" style="rounded=0;whiteSpace=wrap;html=1;fillColor=#d5e8d4;strokeColor=#82b366;" parent="mt-OcB-cgGGMymgLebOA-16" vertex="1">
          <mxGeometry x="20" y="90" width="200" height="30" as="geometry" />
        </mxCell>
        <mxCell id="mt-OcB-cgGGMymgLebOA-13" value="动态链接" style="rounded=0;whiteSpace=wrap;html=1;fillColor=#e1d5e7;strokeColor=#9673a6;" parent="mt-OcB-cgGGMymgLebOA-16" vertex="1">
          <mxGeometry x="20" y="130" width="200" height="30" as="geometry" />
        </mxCell>
        <mxCell id="mt-OcB-cgGGMymgLebOA-14" value="方法返回地址" style="rounded=0;whiteSpace=wrap;html=1;fillColor=#f8cecc;strokeColor=#b85450;" parent="mt-OcB-cgGGMymgLebOA-16" vertex="1">
          <mxGeometry x="20" y="170" width="200" height="30" as="geometry" />
        </mxCell>
        <mxCell id="mt-OcB-cgGGMymgLebOA-15" value="&lt;font style=&quot;font-size: 24px;&quot;&gt;栈帧&lt;/font&gt;" style="text;html=1;align=center;verticalAlign=middle;whiteSpace=wrap;rounded=0;" parent="mt-OcB-cgGGMymgLebOA-16" vertex="1">
          <mxGeometry x="90" y="10" width="60" height="30" as="geometry" />
        </mxCell>
        <mxCell id="mt-OcB-cgGGMymgLebOA-17" value="" style="group" parent="mt-OcB-cgGGMymgLebOA-45" vertex="1" connectable="0">
          <mxGeometry x="10" y="300" width="240" height="210" as="geometry" />
        </mxCell>
        <mxCell id="mt-OcB-cgGGMymgLebOA-18" value="" style="rounded=1;whiteSpace=wrap;html=1;fillColor=#ffe6cc;strokeColor=#d79b00;" parent="mt-OcB-cgGGMymgLebOA-17" vertex="1">
          <mxGeometry width="240" height="210" as="geometry" />
        </mxCell>
        <mxCell id="mt-OcB-cgGGMymgLebOA-19" value="局部变量表" style="rounded=0;whiteSpace=wrap;html=1;fillColor=#dae8fc;strokeColor=#6c8ebf;" parent="mt-OcB-cgGGMymgLebOA-17" vertex="1">
          <mxGeometry x="20" y="50" width="200" height="30" as="geometry" />
        </mxCell>
        <mxCell id="mt-OcB-cgGGMymgLebOA-20" value="操作数栈" style="rounded=0;whiteSpace=wrap;html=1;fillColor=#d5e8d4;strokeColor=#82b366;" parent="mt-OcB-cgGGMymgLebOA-17" vertex="1">
          <mxGeometry x="20" y="90" width="200" height="30" as="geometry" />
        </mxCell>
        <mxCell id="mt-OcB-cgGGMymgLebOA-21" value="动态链接" style="rounded=0;whiteSpace=wrap;html=1;fillColor=#e1d5e7;strokeColor=#9673a6;" parent="mt-OcB-cgGGMymgLebOA-17" vertex="1">
          <mxGeometry x="20" y="130" width="200" height="30" as="geometry" />
        </mxCell>
        <mxCell id="mt-OcB-cgGGMymgLebOA-22" value="方法返回地址" style="rounded=0;whiteSpace=wrap;html=1;fillColor=#f8cecc;strokeColor=#b85450;" parent="mt-OcB-cgGGMymgLebOA-17" vertex="1">
          <mxGeometry x="20" y="170" width="200" height="30" as="geometry" />
        </mxCell>
        <mxCell id="mt-OcB-cgGGMymgLebOA-23" value="&lt;font style=&quot;font-size: 24px;&quot;&gt;栈帧&lt;/font&gt;" style="text;html=1;align=center;verticalAlign=middle;whiteSpace=wrap;rounded=0;" parent="mt-OcB-cgGGMymgLebOA-17" vertex="1">
          <mxGeometry x="90" y="10" width="60" height="30" as="geometry" />
        </mxCell>
        <mxCell id="mt-OcB-cgGGMymgLebOA-28" value="" style="endArrow=none;dashed=1;html=1;rounded=0;exitX=0.5;exitY=0;exitDx=0;exitDy=0;entryX=0.5;entryY=1;entryDx=0;entryDy=0;" parent="mt-OcB-cgGGMymgLebOA-45" source="mt-OcB-cgGGMymgLebOA-18" target="mt-OcB-cgGGMymgLebOA-9" edge="1">
          <mxGeometry width="50" height="50" relative="1" as="geometry">
            <mxPoint x="85" y="310" as="sourcePoint" />
            <mxPoint x="135" y="260" as="targetPoint" />
          </mxGeometry>
        </mxCell>
        <mxCell id="mt-OcB-cgGGMymgLebOA-57" value="" style="group" parent="1" vertex="1" connectable="0">
          <mxGeometry x="350" y="2040" width="220" height="240" as="geometry" />
        </mxCell>
        <mxCell id="mt-OcB-cgGGMymgLebOA-46" value="" style="rounded=0;whiteSpace=wrap;html=1;strokeColor=#d6b656;fillColor=#fff2cc;" parent="mt-OcB-cgGGMymgLebOA-57" vertex="1">
          <mxGeometry width="220" height="240" as="geometry" />
        </mxCell>
        <mxCell id="mt-OcB-cgGGMymgLebOA-47" value="&lt;font style=&quot;font-size: 36px;&quot;&gt;元空间&lt;/font&gt;" style="text;html=1;align=center;verticalAlign=middle;whiteSpace=wrap;rounded=0;" parent="mt-OcB-cgGGMymgLebOA-57" vertex="1">
          <mxGeometry x="50" y="10" width="120" height="30" as="geometry" />
        </mxCell>
        <mxCell id="mt-OcB-cgGGMymgLebOA-48" value="&lt;font style=&quot;font-size: 14px;&quot;&gt;常量池&lt;/font&gt;" style="rounded=1;whiteSpace=wrap;html=1;fillColor=#dae8fc;strokeColor=#6c8ebf;" parent="mt-OcB-cgGGMymgLebOA-57" vertex="1">
          <mxGeometry x="20" y="70" width="180" height="50" as="geometry" />
        </mxCell>
        <mxCell id="mt-OcB-cgGGMymgLebOA-49" value="&lt;font style=&quot;font-size: 14px;&quot;&gt;类元信息&lt;/font&gt;" style="whiteSpace=wrap;html=1;aspect=fixed;fillColor=#d5e8d4;strokeColor=#82b366;" parent="mt-OcB-cgGGMymgLebOA-57" vertex="1">
          <mxGeometry x="20" y="140" width="80" height="80" as="geometry" />
        </mxCell>
        <mxCell id="mt-OcB-cgGGMymgLebOA-50" value="&lt;font style=&quot;font-size: 14px;&quot;&gt;方法元信息&lt;/font&gt;" style="whiteSpace=wrap;html=1;aspect=fixed;fillColor=#d5e8d4;strokeColor=#82b366;" parent="mt-OcB-cgGGMymgLebOA-57" vertex="1">
          <mxGeometry x="120" y="140" width="80" height="80" as="geometry" />
        </mxCell>
        <mxCell id="mt-OcB-cgGGMymgLebOA-58" value="" style="group;fillColor=#f8cecc;strokeColor=#b85450;container=0;" parent="1" vertex="1" connectable="0">
          <mxGeometry x="100" y="2320" width="180" height="260" as="geometry" />
        </mxCell>
        <mxCell id="mt-OcB-cgGGMymgLebOA-52" value="" style="rounded=0;whiteSpace=wrap;html=1;fillColor=#fff2cc;strokeColor=#d6b656;" parent="1" vertex="1">
          <mxGeometry x="100" y="2300" width="180" height="280" as="geometry" />
        </mxCell>
        <mxCell id="mt-OcB-cgGGMymgLebOA-53" value="&lt;font style=&quot;font-size: 24px;&quot;&gt;对象内存&lt;/font&gt;" style="text;html=1;align=center;verticalAlign=middle;whiteSpace=wrap;rounded=0;" parent="1" vertex="1">
          <mxGeometry x="135" y="2310" width="110" height="30" as="geometry" />
        </mxCell>
        <mxCell id="mt-OcB-cgGGMymgLebOA-54" value="" style="rounded=1;whiteSpace=wrap;html=1;fillColor=#ffe6cc;strokeColor=#d79b00;" parent="1" vertex="1">
          <mxGeometry x="110" y="2350" width="160" height="130" as="geometry" />
        </mxCell>
        <mxCell id="mt-OcB-cgGGMymgLebOA-55" value="&lt;font style=&quot;font-size: 14px;&quot;&gt;实例数据&lt;/font&gt;" style="rounded=1;whiteSpace=wrap;html=1;fillColor=#f8cecc;strokeColor=#b85450;" parent="1" vertex="1">
          <mxGeometry x="110" y="2490" width="160" height="50" as="geometry" />
        </mxCell>
        <mxCell id="mt-OcB-cgGGMymgLebOA-56" value="&lt;font style=&quot;font-size: 14px;&quot;&gt;对齐填充&lt;/font&gt;" style="rounded=1;whiteSpace=wrap;html=1;fillColor=#dae8fc;strokeColor=#6c8ebf;" parent="1" vertex="1">
          <mxGeometry x="110" y="2550" width="160" height="20" as="geometry" />
        </mxCell>
        <mxCell id="mt-OcB-cgGGMymgLebOA-59" value="&lt;font style=&quot;font-size: 14px;&quot;&gt;标记字段&lt;/font&gt;" style="rounded=0;whiteSpace=wrap;html=1;fillColor=#d5e8d4;strokeColor=#82b366;" parent="1" vertex="1">
          <mxGeometry x="130" y="2380" width="120" height="40" as="geometry" />
        </mxCell>
        <mxCell id="mt-OcB-cgGGMymgLebOA-60" value="&lt;font style=&quot;font-size: 14px;&quot;&gt;类型指针&lt;/font&gt;" style="rounded=0;whiteSpace=wrap;html=1;fillColor=#d5e8d4;strokeColor=#82b366;" parent="1" vertex="1">
          <mxGeometry x="130" y="2430" width="120" height="40" as="geometry" />
        </mxCell>
        <mxCell id="mt-OcB-cgGGMymgLebOA-62" value="&lt;font style=&quot;font-size: 18px;&quot;&gt;对象头&lt;/font&gt;" style="text;html=1;align=center;verticalAlign=middle;whiteSpace=wrap;rounded=0;" parent="1" vertex="1">
          <mxGeometry x="160" y="2350" width="60" height="30" as="geometry" />
        </mxCell>
        <mxCell id="mt-OcB-cgGGMymgLebOA-116" value="" style="group" parent="1" vertex="1" connectable="0">
          <mxGeometry x="320" y="2310" width="345" height="330" as="geometry" />
        </mxCell>
        <mxCell id="mt-OcB-cgGGMymgLebOA-96" value="" style="rounded=0;whiteSpace=wrap;html=1;fillColor=#fff2cc;strokeColor=#d6b656;" parent="mt-OcB-cgGGMymgLebOA-116" vertex="1">
          <mxGeometry y="10" width="345" height="320" as="geometry" />
        </mxCell>
        <mxCell id="mt-OcB-cgGGMymgLebOA-64" value="&lt;font style=&quot;font-size: 24px;&quot;&gt;进程内存&lt;/font&gt;" style="text;html=1;align=center;verticalAlign=middle;whiteSpace=wrap;rounded=0;" parent="mt-OcB-cgGGMymgLebOA-116" vertex="1">
          <mxGeometry x="95" width="155" height="60" as="geometry" />
        </mxCell>
        <mxCell id="mt-OcB-cgGGMymgLebOA-65" value="" style="rounded=1;whiteSpace=wrap;html=1;fillColor=#f5f5f5;fontColor=#333333;strokeColor=#666666;" parent="mt-OcB-cgGGMymgLebOA-116" vertex="1">
          <mxGeometry x="15" y="50" width="120" height="250" as="geometry" />
        </mxCell>
        <mxCell id="mt-OcB-cgGGMymgLebOA-66" value="&lt;font style=&quot;font-size: 18px;&quot;&gt;线程&lt;/font&gt;" style="text;html=1;align=center;verticalAlign=middle;whiteSpace=wrap;rounded=0;" parent="mt-OcB-cgGGMymgLebOA-116" vertex="1">
          <mxGeometry x="45" y="50" width="60" height="30" as="geometry" />
        </mxCell>
        <mxCell id="mt-OcB-cgGGMymgLebOA-67" value="" style="rounded=1;whiteSpace=wrap;html=1;fillColor=#f5f5f5;fontColor=#333333;strokeColor=#666666;" parent="mt-OcB-cgGGMymgLebOA-116" vertex="1">
          <mxGeometry x="20" y="80" width="110" height="210" as="geometry" />
        </mxCell>
        <mxCell id="mt-OcB-cgGGMymgLebOA-68" value="虚拟机栈" style="text;html=1;align=center;verticalAlign=middle;whiteSpace=wrap;rounded=0;" parent="mt-OcB-cgGGMymgLebOA-116" vertex="1">
          <mxGeometry x="45" y="90" width="60" height="30" as="geometry" />
        </mxCell>
        <mxCell id="mt-OcB-cgGGMymgLebOA-70" value="" style="rounded=1;whiteSpace=wrap;html=1;fillColor=#f5f5f5;fontColor=#333333;strokeColor=#666666;" parent="mt-OcB-cgGGMymgLebOA-116" vertex="1">
          <mxGeometry x="25" y="120" width="100" height="160" as="geometry" />
        </mxCell>
        <mxCell id="mt-OcB-cgGGMymgLebOA-71" value="栈帧" style="text;html=1;align=center;verticalAlign=middle;whiteSpace=wrap;rounded=0;" parent="mt-OcB-cgGGMymgLebOA-116" vertex="1">
          <mxGeometry x="45" y="130" width="60" height="30" as="geometry" />
        </mxCell>
        <mxCell id="mt-OcB-cgGGMymgLebOA-72" value="" style="rounded=1;whiteSpace=wrap;html=1;fillColor=#f5f5f5;fontColor=#333333;strokeColor=#666666;" parent="mt-OcB-cgGGMymgLebOA-116" vertex="1">
          <mxGeometry x="35" y="160" width="80" height="50" as="geometry" />
        </mxCell>
        <mxCell id="mt-OcB-cgGGMymgLebOA-82" value="&lt;div style=&quot;&quot;&gt;&lt;span style=&quot;background-color: transparent; color: light-dark(rgb(0, 0, 0), rgb(255, 255, 255)); font-size: 8px;&quot;&gt;直接指针&lt;/span&gt;&lt;/div&gt;" style="rounded=1;whiteSpace=wrap;html=1;align=center;fillColor=#f8cecc;strokeColor=#b85450;" parent="mt-OcB-cgGGMymgLebOA-116" vertex="1">
          <mxGeometry x="55" y="186" width="40" height="20" as="geometry" />
        </mxCell>
        <mxCell id="mt-OcB-cgGGMymgLebOA-74" value="局部变量表" style="text;html=1;align=center;verticalAlign=middle;whiteSpace=wrap;rounded=0;" parent="mt-OcB-cgGGMymgLebOA-116" vertex="1">
          <mxGeometry x="35" y="160" width="80" height="30" as="geometry" />
        </mxCell>
        <mxCell id="mt-OcB-cgGGMymgLebOA-76" value="" style="rounded=1;whiteSpace=wrap;html=1;fillColor=#f5f5f5;fontColor=#333333;strokeColor=#666666;" parent="mt-OcB-cgGGMymgLebOA-116" vertex="1">
          <mxGeometry x="35" y="220" width="80" height="50" as="geometry" />
        </mxCell>
        <mxCell id="mt-OcB-cgGGMymgLebOA-78" value="操作数栈" style="text;html=1;align=center;verticalAlign=middle;whiteSpace=wrap;rounded=0;" parent="mt-OcB-cgGGMymgLebOA-116" vertex="1">
          <mxGeometry x="35" y="220" width="80" height="30" as="geometry" />
        </mxCell>
        <mxCell id="mt-OcB-cgGGMymgLebOA-79" value="" style="rounded=1;whiteSpace=wrap;html=1;fillColor=#f5f5f5;fontColor=#333333;strokeColor=#666666;" parent="mt-OcB-cgGGMymgLebOA-116" vertex="1">
          <mxGeometry x="160" y="50" width="170" height="180" as="geometry" />
        </mxCell>
        <mxCell id="mt-OcB-cgGGMymgLebOA-80" value="&lt;font style=&quot;font-size: 18px;&quot;&gt;堆&lt;/font&gt;" style="text;html=1;align=center;verticalAlign=middle;whiteSpace=wrap;rounded=0;" parent="mt-OcB-cgGGMymgLebOA-116" vertex="1">
          <mxGeometry x="215" y="50" width="60" height="30" as="geometry" />
        </mxCell>
        <mxCell id="mt-OcB-cgGGMymgLebOA-84" value="&lt;div style=&quot;&quot;&gt;&lt;span style=&quot;background-color: transparent; color: light-dark(rgb(0, 0, 0), rgb(255, 255, 255)); font-size: 8px;&quot;&gt;直接指针&lt;/span&gt;&lt;/div&gt;" style="rounded=1;whiteSpace=wrap;html=1;align=center;fillColor=#f8cecc;strokeColor=#b85450;" parent="mt-OcB-cgGGMymgLebOA-116" vertex="1">
          <mxGeometry x="55" y="246" width="40" height="20" as="geometry" />
        </mxCell>
        <mxCell id="mt-OcB-cgGGMymgLebOA-85" value="" style="rounded=1;whiteSpace=wrap;html=1;fillColor=#f5f5f5;strokeColor=#666666;fontColor=#333333;" parent="mt-OcB-cgGGMymgLebOA-116" vertex="1">
          <mxGeometry x="170" y="80" width="150" height="140" as="geometry" />
        </mxCell>
        <mxCell id="mt-OcB-cgGGMymgLebOA-86" value="新生代" style="text;html=1;align=center;verticalAlign=middle;whiteSpace=wrap;rounded=0;" parent="mt-OcB-cgGGMymgLebOA-116" vertex="1">
          <mxGeometry x="215" y="80" width="60" height="30" as="geometry" />
        </mxCell>
        <mxCell id="mt-OcB-cgGGMymgLebOA-88" value="" style="rounded=1;whiteSpace=wrap;html=1;fillColor=#f5f5f5;fontColor=#333333;strokeColor=#666666;" parent="mt-OcB-cgGGMymgLebOA-116" vertex="1">
          <mxGeometry x="185" y="110" width="120" height="100" as="geometry" />
        </mxCell>
        <mxCell id="mt-OcB-cgGGMymgLebOA-89" value="对象" style="text;html=1;align=center;verticalAlign=middle;whiteSpace=wrap;rounded=0;" parent="mt-OcB-cgGGMymgLebOA-116" vertex="1">
          <mxGeometry x="215" y="110" width="60" height="30" as="geometry" />
        </mxCell>
        <mxCell id="mt-OcB-cgGGMymgLebOA-90" value="" style="rounded=1;whiteSpace=wrap;html=1;fillColor=#f5f5f5;fontColor=#333333;strokeColor=#666666;" parent="mt-OcB-cgGGMymgLebOA-116" vertex="1">
          <mxGeometry x="200" y="140" width="90" height="60" as="geometry" />
        </mxCell>
        <mxCell id="mt-OcB-cgGGMymgLebOA-92" value="对象头" style="text;html=1;align=center;verticalAlign=middle;whiteSpace=wrap;rounded=0;" parent="mt-OcB-cgGGMymgLebOA-116" vertex="1">
          <mxGeometry x="215" y="135" width="60" height="30" as="geometry" />
        </mxCell>
        <mxCell id="mt-OcB-cgGGMymgLebOA-94" value="&lt;font style=&quot;font-size: 8px;&quot;&gt;类型指针&lt;/font&gt;" style="rounded=1;whiteSpace=wrap;html=1;fillColor=#f8cecc;strokeColor=#b85450;" parent="mt-OcB-cgGGMymgLebOA-116" vertex="1">
          <mxGeometry x="215" y="170" width="60" height="20" as="geometry" />
        </mxCell>
        <mxCell id="mt-OcB-cgGGMymgLebOA-95" value="" style="rounded=1;whiteSpace=wrap;html=1;fillColor=#f5f5f5;fontColor=#333333;strokeColor=#666666;" parent="mt-OcB-cgGGMymgLebOA-116" vertex="1">
          <mxGeometry x="160" y="240" width="170" height="80" as="geometry" />
        </mxCell>
        <mxCell id="mt-OcB-cgGGMymgLebOA-97" value="元空间" style="text;html=1;align=center;verticalAlign=middle;whiteSpace=wrap;rounded=0;" parent="mt-OcB-cgGGMymgLebOA-116" vertex="1">
          <mxGeometry x="215" y="236" width="60" height="30" as="geometry" />
        </mxCell>
        <mxCell id="mt-OcB-cgGGMymgLebOA-98" value="" style="rounded=1;whiteSpace=wrap;html=1;fillColor=#f5f5f5;fontColor=#333333;strokeColor=#666666;" parent="mt-OcB-cgGGMymgLebOA-116" vertex="1">
          <mxGeometry x="163" y="263" width="80" height="49" as="geometry" />
        </mxCell>
        <mxCell id="mt-OcB-cgGGMymgLebOA-99" value="类元信息" style="text;html=1;align=center;verticalAlign=middle;whiteSpace=wrap;rounded=0;" parent="mt-OcB-cgGGMymgLebOA-116" vertex="1">
          <mxGeometry x="172" y="260" width="60" height="30" as="geometry" />
        </mxCell>
        <mxCell id="mt-OcB-cgGGMymgLebOA-100" value="&lt;font style=&quot;font-size: 8px;&quot;&gt;方法表&lt;/font&gt;" style="rounded=1;whiteSpace=wrap;html=1;fillColor=#f8cecc;strokeColor=#b85450;" parent="mt-OcB-cgGGMymgLebOA-116" vertex="1">
          <mxGeometry x="172" y="288" width="60" height="20" as="geometry" />
        </mxCell>
        <mxCell id="mt-OcB-cgGGMymgLebOA-101" value="方法元信息" style="rounded=1;whiteSpace=wrap;html=1;fillColor=#f8cecc;strokeColor=#b85450;" parent="mt-OcB-cgGGMymgLebOA-116" vertex="1">
          <mxGeometry x="247" y="263" width="80" height="49" as="geometry" />
        </mxCell>
        <mxCell id="mt-OcB-cgGGMymgLebOA-105" style="edgeStyle=orthogonalEdgeStyle;rounded=0;orthogonalLoop=1;jettySize=auto;html=1;exitX=1;exitY=0.5;exitDx=0;exitDy=0;entryX=0;entryY=0.5;entryDx=0;entryDy=0;curved=1;strokeColor=#0000FF;" parent="mt-OcB-cgGGMymgLebOA-116" source="mt-OcB-cgGGMymgLebOA-82" target="mt-OcB-cgGGMymgLebOA-94" edge="1">
          <mxGeometry relative="1" as="geometry">
            <Array as="points">
              <mxPoint x="150" y="196" />
              <mxPoint x="150" y="180" />
            </Array>
          </mxGeometry>
        </mxCell>
        <mxCell id="mt-OcB-cgGGMymgLebOA-106" style="edgeStyle=orthogonalEdgeStyle;rounded=0;orthogonalLoop=1;jettySize=auto;html=1;exitX=1;exitY=0.5;exitDx=0;exitDy=0;entryX=0;entryY=0.5;entryDx=0;entryDy=0;strokeColor=#0000FF;curved=1;" parent="mt-OcB-cgGGMymgLebOA-116" source="mt-OcB-cgGGMymgLebOA-84" target="mt-OcB-cgGGMymgLebOA-94" edge="1">
          <mxGeometry relative="1" as="geometry">
            <Array as="points">
              <mxPoint x="150" y="256" />
              <mxPoint x="150" y="180" />
            </Array>
          </mxGeometry>
        </mxCell>
        <mxCell id="mt-OcB-cgGGMymgLebOA-108" style="edgeStyle=orthogonalEdgeStyle;rounded=0;orthogonalLoop=1;jettySize=auto;html=1;exitX=0.5;exitY=1;exitDx=0;exitDy=0;entryX=0;entryY=0.5;entryDx=0;entryDy=0;curved=1;strokeColor=#0000FF;" parent="mt-OcB-cgGGMymgLebOA-116" source="mt-OcB-cgGGMymgLebOA-94" target="mt-OcB-cgGGMymgLebOA-100" edge="1">
          <mxGeometry relative="1" as="geometry">
            <Array as="points">
              <mxPoint x="245" y="220" />
              <mxPoint x="150" y="220" />
              <mxPoint x="150" y="298" />
            </Array>
          </mxGeometry>
        </mxCell>
        <mxCell id="mt-OcB-cgGGMymgLebOA-115" value="" style="endArrow=classic;html=1;rounded=0;exitX=1;exitY=0.5;exitDx=0;exitDy=0;strokeColor=#0000FF;" parent="mt-OcB-cgGGMymgLebOA-116" source="mt-OcB-cgGGMymgLebOA-100" edge="1">
          <mxGeometry width="50" height="50" relative="1" as="geometry">
            <mxPoint x="200" y="338" as="sourcePoint" />
            <mxPoint x="250" y="288" as="targetPoint" />
          </mxGeometry>
        </mxCell>
        <mxCell id="bBg2_2M-srpYD9WK9by4-1" value="" style="childLayout=tableLayout;recursiveResize=0;shadow=0;fillColor=none;" vertex="1" parent="1">
          <mxGeometry x="50" y="2740" width="250" height="180" as="geometry" />
        </mxCell>
        <mxCell id="bBg2_2M-srpYD9WK9by4-2" value="" style="shape=tableRow;horizontal=0;startSize=0;swimlaneHead=0;swimlaneBody=0;top=0;left=0;bottom=0;right=0;dropTarget=0;collapsible=0;recursiveResize=0;expand=0;fontStyle=0;fillColor=none;strokeColor=inherit;" vertex="1" parent="bBg2_2M-srpYD9WK9by4-1">
          <mxGeometry width="250" height="60" as="geometry" />
        </mxCell>
        <mxCell id="bBg2_2M-srpYD9WK9by4-3" value="1" style="connectable=0;recursiveResize=0;strokeColor=#82b366;fillColor=#d5e8d4;align=center;whiteSpace=wrap;html=1;" vertex="1" parent="bBg2_2M-srpYD9WK9by4-2">
          <mxGeometry width="83" height="60" as="geometry">
            <mxRectangle width="83" height="60" as="alternateBounds" />
          </mxGeometry>
        </mxCell>
        <mxCell id="bBg2_2M-srpYD9WK9by4-4" value="2" style="connectable=0;recursiveResize=0;strokeColor=#b85450;fillColor=#f8cecc;align=center;whiteSpace=wrap;html=1;" vertex="1" parent="bBg2_2M-srpYD9WK9by4-2">
          <mxGeometry x="83" width="84" height="60" as="geometry">
            <mxRectangle width="84" height="60" as="alternateBounds" />
          </mxGeometry>
        </mxCell>
        <mxCell id="bBg2_2M-srpYD9WK9by4-5" value="3" style="connectable=0;recursiveResize=0;strokeColor=#6c8ebf;fillColor=#dae8fc;align=center;whiteSpace=wrap;html=1;" vertex="1" parent="bBg2_2M-srpYD9WK9by4-2">
          <mxGeometry x="167" width="83" height="60" as="geometry">
            <mxRectangle width="83" height="60" as="alternateBounds" />
          </mxGeometry>
        </mxCell>
        <mxCell id="bBg2_2M-srpYD9WK9by4-6" style="shape=tableRow;horizontal=0;startSize=0;swimlaneHead=0;swimlaneBody=0;top=0;left=0;bottom=0;right=0;dropTarget=0;collapsible=0;recursiveResize=0;expand=0;fontStyle=0;fillColor=none;strokeColor=inherit;" vertex="1" parent="bBg2_2M-srpYD9WK9by4-1">
          <mxGeometry y="60" width="250" height="60" as="geometry" />
        </mxCell>
        <mxCell id="bBg2_2M-srpYD9WK9by4-7" value="4" style="connectable=0;recursiveResize=0;strokeColor=#b85450;fillColor=#f8cecc;align=center;whiteSpace=wrap;html=1;" vertex="1" parent="bBg2_2M-srpYD9WK9by4-6">
          <mxGeometry width="83" height="60" as="geometry">
            <mxRectangle width="83" height="60" as="alternateBounds" />
          </mxGeometry>
        </mxCell>
        <mxCell id="bBg2_2M-srpYD9WK9by4-8" value="5" style="connectable=0;recursiveResize=0;strokeColor=#82b366;fillColor=#d5e8d4;align=center;whiteSpace=wrap;html=1;" vertex="1" parent="bBg2_2M-srpYD9WK9by4-6">
          <mxGeometry x="83" width="84" height="60" as="geometry">
            <mxRectangle width="84" height="60" as="alternateBounds" />
          </mxGeometry>
        </mxCell>
        <mxCell id="bBg2_2M-srpYD9WK9by4-9" value="6" style="connectable=0;recursiveResize=0;strokeColor=#6c8ebf;fillColor=#dae8fc;align=center;whiteSpace=wrap;html=1;" vertex="1" parent="bBg2_2M-srpYD9WK9by4-6">
          <mxGeometry x="167" width="83" height="60" as="geometry">
            <mxRectangle width="83" height="60" as="alternateBounds" />
          </mxGeometry>
        </mxCell>
        <mxCell id="bBg2_2M-srpYD9WK9by4-10" style="shape=tableRow;horizontal=0;startSize=0;swimlaneHead=0;swimlaneBody=0;top=0;left=0;bottom=0;right=0;dropTarget=0;collapsible=0;recursiveResize=0;expand=0;fontStyle=0;fillColor=none;strokeColor=inherit;" vertex="1" parent="bBg2_2M-srpYD9WK9by4-1">
          <mxGeometry y="120" width="250" height="60" as="geometry" />
        </mxCell>
        <mxCell id="bBg2_2M-srpYD9WK9by4-11" value="7" style="connectable=0;recursiveResize=0;strokeColor=#b85450;fillColor=#f8cecc;align=center;whiteSpace=wrap;html=1;" vertex="1" parent="bBg2_2M-srpYD9WK9by4-10">
          <mxGeometry width="83" height="60" as="geometry">
            <mxRectangle width="83" height="60" as="alternateBounds" />
          </mxGeometry>
        </mxCell>
        <mxCell id="bBg2_2M-srpYD9WK9by4-12" value="8" style="connectable=0;recursiveResize=0;strokeColor=#6c8ebf;fillColor=#dae8fc;align=center;whiteSpace=wrap;html=1;" vertex="1" parent="bBg2_2M-srpYD9WK9by4-10">
          <mxGeometry x="83" width="84" height="60" as="geometry">
            <mxRectangle width="84" height="60" as="alternateBounds" />
          </mxGeometry>
        </mxCell>
        <mxCell id="bBg2_2M-srpYD9WK9by4-13" value="9" style="connectable=0;recursiveResize=0;strokeColor=#82b366;fillColor=#d5e8d4;align=center;whiteSpace=wrap;html=1;" vertex="1" parent="bBg2_2M-srpYD9WK9by4-10">
          <mxGeometry x="167" width="83" height="60" as="geometry">
            <mxRectangle width="83" height="60" as="alternateBounds" />
          </mxGeometry>
        </mxCell>
        <mxCell id="bBg2_2M-srpYD9WK9by4-74" value="" style="group" vertex="1" connectable="0" parent="1">
          <mxGeometry x="226" y="2940" width="249" height="60" as="geometry" />
        </mxCell>
        <mxCell id="bBg2_2M-srpYD9WK9by4-71" value="可用内存" style="connectable=0;recursiveResize=0;strokeColor=#82b366;fillColor=#d5e8d4;align=center;whiteSpace=wrap;html=1;" vertex="1" parent="bBg2_2M-srpYD9WK9by4-74">
          <mxGeometry width="83" height="60" as="geometry">
            <mxRectangle width="83" height="60" as="alternateBounds" />
          </mxGeometry>
        </mxCell>
        <mxCell id="bBg2_2M-srpYD9WK9by4-72" value="存活对象" style="connectable=0;recursiveResize=0;strokeColor=#6c8ebf;fillColor=#dae8fc;align=center;whiteSpace=wrap;html=1;" vertex="1" parent="bBg2_2M-srpYD9WK9by4-74">
          <mxGeometry x="83" width="83" height="60" as="geometry">
            <mxRectangle width="83" height="60" as="alternateBounds" />
          </mxGeometry>
        </mxCell>
        <mxCell id="bBg2_2M-srpYD9WK9by4-73" value="回收对象" style="connectable=0;recursiveResize=0;strokeColor=#b85450;fillColor=#f8cecc;align=center;whiteSpace=wrap;html=1;" vertex="1" parent="bBg2_2M-srpYD9WK9by4-74">
          <mxGeometry x="166" width="83" height="60" as="geometry">
            <mxRectangle width="83" height="60" as="alternateBounds" />
          </mxGeometry>
        </mxCell>
        <mxCell id="bBg2_2M-srpYD9WK9by4-75" value="" style="shape=flexArrow;endArrow=classic;html=1;rounded=0;width=5.833333333333334;endSize=6;entryX=0;entryY=0.5;entryDx=0;entryDy=0;" edge="1" parent="1" target="bBg2_2M-srpYD9WK9by4-81">
          <mxGeometry width="50" height="50" relative="1" as="geometry">
            <mxPoint x="300" y="2830" as="sourcePoint" />
            <mxPoint x="390" y="2829.41" as="targetPoint" />
          </mxGeometry>
        </mxCell>
        <mxCell id="bBg2_2M-srpYD9WK9by4-76" value="" style="childLayout=tableLayout;recursiveResize=0;shadow=0;fillColor=none;" vertex="1" parent="1">
          <mxGeometry x="400" y="2740" width="250" height="180" as="geometry" />
        </mxCell>
        <mxCell id="bBg2_2M-srpYD9WK9by4-77" value="" style="shape=tableRow;horizontal=0;startSize=0;swimlaneHead=0;swimlaneBody=0;top=0;left=0;bottom=0;right=0;dropTarget=0;collapsible=0;recursiveResize=0;expand=0;fontStyle=0;fillColor=none;strokeColor=inherit;" vertex="1" parent="bBg2_2M-srpYD9WK9by4-76">
          <mxGeometry width="250" height="60" as="geometry" />
        </mxCell>
        <mxCell id="bBg2_2M-srpYD9WK9by4-78" value="1" style="connectable=0;recursiveResize=0;strokeColor=#82b366;fillColor=#d5e8d4;align=center;whiteSpace=wrap;html=1;" vertex="1" parent="bBg2_2M-srpYD9WK9by4-77">
          <mxGeometry width="83" height="60" as="geometry">
            <mxRectangle width="83" height="60" as="alternateBounds" />
          </mxGeometry>
        </mxCell>
        <mxCell id="bBg2_2M-srpYD9WK9by4-79" value="2" style="connectable=0;recursiveResize=0;strokeColor=#82b366;fillColor=#d5e8d4;align=center;whiteSpace=wrap;html=1;" vertex="1" parent="bBg2_2M-srpYD9WK9by4-77">
          <mxGeometry x="83" width="84" height="60" as="geometry">
            <mxRectangle width="84" height="60" as="alternateBounds" />
          </mxGeometry>
        </mxCell>
        <mxCell id="bBg2_2M-srpYD9WK9by4-80" value="3" style="connectable=0;recursiveResize=0;strokeColor=#6c8ebf;fillColor=#dae8fc;align=center;whiteSpace=wrap;html=1;" vertex="1" parent="bBg2_2M-srpYD9WK9by4-77">
          <mxGeometry x="167" width="83" height="60" as="geometry">
            <mxRectangle width="83" height="60" as="alternateBounds" />
          </mxGeometry>
        </mxCell>
        <mxCell id="bBg2_2M-srpYD9WK9by4-81" style="shape=tableRow;horizontal=0;startSize=0;swimlaneHead=0;swimlaneBody=0;top=0;left=0;bottom=0;right=0;dropTarget=0;collapsible=0;recursiveResize=0;expand=0;fontStyle=0;fillColor=none;strokeColor=inherit;" vertex="1" parent="bBg2_2M-srpYD9WK9by4-76">
          <mxGeometry y="60" width="250" height="60" as="geometry" />
        </mxCell>
        <mxCell id="bBg2_2M-srpYD9WK9by4-82" value="4" style="connectable=0;recursiveResize=0;strokeColor=#82b366;fillColor=#d5e8d4;align=center;whiteSpace=wrap;html=1;" vertex="1" parent="bBg2_2M-srpYD9WK9by4-81">
          <mxGeometry width="83" height="60" as="geometry">
            <mxRectangle width="83" height="60" as="alternateBounds" />
          </mxGeometry>
        </mxCell>
        <mxCell id="bBg2_2M-srpYD9WK9by4-83" value="5" style="connectable=0;recursiveResize=0;strokeColor=#82b366;fillColor=#d5e8d4;align=center;whiteSpace=wrap;html=1;" vertex="1" parent="bBg2_2M-srpYD9WK9by4-81">
          <mxGeometry x="83" width="84" height="60" as="geometry">
            <mxRectangle width="84" height="60" as="alternateBounds" />
          </mxGeometry>
        </mxCell>
        <mxCell id="bBg2_2M-srpYD9WK9by4-84" value="6" style="connectable=0;recursiveResize=0;strokeColor=#6c8ebf;fillColor=#dae8fc;align=center;whiteSpace=wrap;html=1;" vertex="1" parent="bBg2_2M-srpYD9WK9by4-81">
          <mxGeometry x="167" width="83" height="60" as="geometry">
            <mxRectangle width="83" height="60" as="alternateBounds" />
          </mxGeometry>
        </mxCell>
        <mxCell id="bBg2_2M-srpYD9WK9by4-85" style="shape=tableRow;horizontal=0;startSize=0;swimlaneHead=0;swimlaneBody=0;top=0;left=0;bottom=0;right=0;dropTarget=0;collapsible=0;recursiveResize=0;expand=0;fontStyle=0;fillColor=none;strokeColor=inherit;" vertex="1" parent="bBg2_2M-srpYD9WK9by4-76">
          <mxGeometry y="120" width="250" height="60" as="geometry" />
        </mxCell>
        <mxCell id="bBg2_2M-srpYD9WK9by4-86" value="7" style="connectable=0;recursiveResize=0;strokeColor=#82b366;fillColor=#d5e8d4;align=center;whiteSpace=wrap;html=1;" vertex="1" parent="bBg2_2M-srpYD9WK9by4-85">
          <mxGeometry width="83" height="60" as="geometry">
            <mxRectangle width="83" height="60" as="alternateBounds" />
          </mxGeometry>
        </mxCell>
        <mxCell id="bBg2_2M-srpYD9WK9by4-87" value="8" style="connectable=0;recursiveResize=0;strokeColor=#6c8ebf;fillColor=#dae8fc;align=center;whiteSpace=wrap;html=1;" vertex="1" parent="bBg2_2M-srpYD9WK9by4-85">
          <mxGeometry x="83" width="84" height="60" as="geometry">
            <mxRectangle width="84" height="60" as="alternateBounds" />
          </mxGeometry>
        </mxCell>
        <mxCell id="bBg2_2M-srpYD9WK9by4-88" value="9" style="connectable=0;recursiveResize=0;strokeColor=#82b366;fillColor=#d5e8d4;align=center;whiteSpace=wrap;html=1;" vertex="1" parent="bBg2_2M-srpYD9WK9by4-85">
          <mxGeometry x="167" width="83" height="60" as="geometry">
            <mxRectangle width="83" height="60" as="alternateBounds" />
          </mxGeometry>
        </mxCell>
        <mxCell id="bBg2_2M-srpYD9WK9by4-120" value="" style="childLayout=tableLayout;recursiveResize=0;shadow=0;fillColor=none;" vertex="1" parent="1">
          <mxGeometry x="50" y="3060" width="250" height="180" as="geometry" />
        </mxCell>
        <mxCell id="bBg2_2M-srpYD9WK9by4-121" value="" style="shape=tableRow;horizontal=0;startSize=0;swimlaneHead=0;swimlaneBody=0;top=0;left=0;bottom=0;right=0;dropTarget=0;collapsible=0;recursiveResize=0;expand=0;fontStyle=0;fillColor=none;strokeColor=inherit;" vertex="1" parent="bBg2_2M-srpYD9WK9by4-120">
          <mxGeometry width="250" height="60" as="geometry" />
        </mxCell>
        <mxCell id="bBg2_2M-srpYD9WK9by4-122" value="1" style="connectable=0;recursiveResize=0;strokeColor=#82b366;fillColor=#d5e8d4;align=center;whiteSpace=wrap;html=1;" vertex="1" parent="bBg2_2M-srpYD9WK9by4-121">
          <mxGeometry width="83" height="60" as="geometry">
            <mxRectangle width="83" height="60" as="alternateBounds" />
          </mxGeometry>
        </mxCell>
        <mxCell id="bBg2_2M-srpYD9WK9by4-123" value="2" style="connectable=0;recursiveResize=0;strokeColor=#b85450;fillColor=#f8cecc;align=center;whiteSpace=wrap;html=1;" vertex="1" parent="bBg2_2M-srpYD9WK9by4-121">
          <mxGeometry x="83" width="84" height="60" as="geometry">
            <mxRectangle width="84" height="60" as="alternateBounds" />
          </mxGeometry>
        </mxCell>
        <mxCell id="bBg2_2M-srpYD9WK9by4-124" value="3" style="connectable=0;recursiveResize=0;strokeColor=#6c8ebf;fillColor=#dae8fc;align=center;whiteSpace=wrap;html=1;" vertex="1" parent="bBg2_2M-srpYD9WK9by4-121">
          <mxGeometry x="167" width="83" height="60" as="geometry">
            <mxRectangle width="83" height="60" as="alternateBounds" />
          </mxGeometry>
        </mxCell>
        <mxCell id="bBg2_2M-srpYD9WK9by4-125" style="shape=tableRow;horizontal=0;startSize=0;swimlaneHead=0;swimlaneBody=0;top=0;left=0;bottom=0;right=0;dropTarget=0;collapsible=0;recursiveResize=0;expand=0;fontStyle=0;fillColor=none;strokeColor=inherit;" vertex="1" parent="bBg2_2M-srpYD9WK9by4-120">
          <mxGeometry y="60" width="250" height="60" as="geometry" />
        </mxCell>
        <mxCell id="bBg2_2M-srpYD9WK9by4-126" value="4" style="connectable=0;recursiveResize=0;strokeColor=#b85450;fillColor=#f8cecc;align=center;whiteSpace=wrap;html=1;" vertex="1" parent="bBg2_2M-srpYD9WK9by4-125">
          <mxGeometry width="83" height="60" as="geometry">
            <mxRectangle width="83" height="60" as="alternateBounds" />
          </mxGeometry>
        </mxCell>
        <mxCell id="bBg2_2M-srpYD9WK9by4-127" value="5" style="connectable=0;recursiveResize=0;strokeColor=#82b366;fillColor=#d5e8d4;align=center;whiteSpace=wrap;html=1;" vertex="1" parent="bBg2_2M-srpYD9WK9by4-125">
          <mxGeometry x="83" width="84" height="60" as="geometry">
            <mxRectangle width="84" height="60" as="alternateBounds" />
          </mxGeometry>
        </mxCell>
        <mxCell id="bBg2_2M-srpYD9WK9by4-128" value="6" style="connectable=0;recursiveResize=0;strokeColor=#6c8ebf;fillColor=#dae8fc;align=center;whiteSpace=wrap;html=1;" vertex="1" parent="bBg2_2M-srpYD9WK9by4-125">
          <mxGeometry x="167" width="83" height="60" as="geometry">
            <mxRectangle width="83" height="60" as="alternateBounds" />
          </mxGeometry>
        </mxCell>
        <mxCell id="bBg2_2M-srpYD9WK9by4-129" style="shape=tableRow;horizontal=0;startSize=0;swimlaneHead=0;swimlaneBody=0;top=0;left=0;bottom=0;right=0;dropTarget=0;collapsible=0;recursiveResize=0;expand=0;fontStyle=0;fillColor=none;strokeColor=inherit;" vertex="1" parent="bBg2_2M-srpYD9WK9by4-120">
          <mxGeometry y="120" width="250" height="60" as="geometry" />
        </mxCell>
        <mxCell id="bBg2_2M-srpYD9WK9by4-130" value="7" style="connectable=0;recursiveResize=0;strokeColor=#b85450;fillColor=#f8cecc;align=center;whiteSpace=wrap;html=1;" vertex="1" parent="bBg2_2M-srpYD9WK9by4-129">
          <mxGeometry width="83" height="60" as="geometry">
            <mxRectangle width="83" height="60" as="alternateBounds" />
          </mxGeometry>
        </mxCell>
        <mxCell id="bBg2_2M-srpYD9WK9by4-131" value="8" style="connectable=0;recursiveResize=0;strokeColor=#6c8ebf;fillColor=#dae8fc;align=center;whiteSpace=wrap;html=1;" vertex="1" parent="bBg2_2M-srpYD9WK9by4-129">
          <mxGeometry x="83" width="84" height="60" as="geometry">
            <mxRectangle width="84" height="60" as="alternateBounds" />
          </mxGeometry>
        </mxCell>
        <mxCell id="bBg2_2M-srpYD9WK9by4-132" value="9" style="connectable=0;recursiveResize=0;strokeColor=#82b366;fillColor=#d5e8d4;align=center;whiteSpace=wrap;html=1;" vertex="1" parent="bBg2_2M-srpYD9WK9by4-129">
          <mxGeometry x="167" width="83" height="60" as="geometry">
            <mxRectangle width="83" height="60" as="alternateBounds" />
          </mxGeometry>
        </mxCell>
        <mxCell id="bBg2_2M-srpYD9WK9by4-133" value="" style="shape=flexArrow;endArrow=classic;html=1;rounded=0;width=5.833333333333334;endSize=6;entryX=0;entryY=0.5;entryDx=0;entryDy=0;" edge="1" parent="1" target="bBg2_2M-srpYD9WK9by4-156">
          <mxGeometry width="50" height="50" relative="1" as="geometry">
            <mxPoint x="300" y="3150" as="sourcePoint" />
            <mxPoint x="390" y="3149.41" as="targetPoint" />
          </mxGeometry>
        </mxCell>
        <mxCell id="bBg2_2M-srpYD9WK9by4-147" value="" style="group" vertex="1" connectable="0" parent="1">
          <mxGeometry x="226" y="3260" width="249" height="60" as="geometry" />
        </mxCell>
        <mxCell id="bBg2_2M-srpYD9WK9by4-148" value="可用内存" style="connectable=0;recursiveResize=0;strokeColor=#82b366;fillColor=#d5e8d4;align=center;whiteSpace=wrap;html=1;" vertex="1" parent="bBg2_2M-srpYD9WK9by4-147">
          <mxGeometry width="83" height="60" as="geometry">
            <mxRectangle width="83" height="60" as="alternateBounds" />
          </mxGeometry>
        </mxCell>
        <mxCell id="bBg2_2M-srpYD9WK9by4-149" value="存活对象" style="connectable=0;recursiveResize=0;strokeColor=#6c8ebf;fillColor=#dae8fc;align=center;whiteSpace=wrap;html=1;" vertex="1" parent="bBg2_2M-srpYD9WK9by4-147">
          <mxGeometry x="83" width="83" height="60" as="geometry">
            <mxRectangle width="83" height="60" as="alternateBounds" />
          </mxGeometry>
        </mxCell>
        <mxCell id="bBg2_2M-srpYD9WK9by4-150" value="回收对象" style="connectable=0;recursiveResize=0;strokeColor=#b85450;fillColor=#f8cecc;align=center;whiteSpace=wrap;html=1;" vertex="1" parent="bBg2_2M-srpYD9WK9by4-147">
          <mxGeometry x="166" width="83" height="60" as="geometry">
            <mxRectangle width="83" height="60" as="alternateBounds" />
          </mxGeometry>
        </mxCell>
        <mxCell id="bBg2_2M-srpYD9WK9by4-151" value="" style="childLayout=tableLayout;recursiveResize=0;shadow=0;fillColor=none;" vertex="1" parent="1">
          <mxGeometry x="400" y="3060" width="250" height="180" as="geometry" />
        </mxCell>
        <mxCell id="bBg2_2M-srpYD9WK9by4-152" value="" style="shape=tableRow;horizontal=0;startSize=0;swimlaneHead=0;swimlaneBody=0;top=0;left=0;bottom=0;right=0;dropTarget=0;collapsible=0;recursiveResize=0;expand=0;fontStyle=0;fillColor=none;strokeColor=inherit;" vertex="1" parent="bBg2_2M-srpYD9WK9by4-151">
          <mxGeometry width="250" height="60" as="geometry" />
        </mxCell>
        <mxCell id="bBg2_2M-srpYD9WK9by4-153" value="1" style="connectable=0;recursiveResize=0;strokeColor=#6c8ebf;fillColor=#dae8fc;align=center;whiteSpace=wrap;html=1;" vertex="1" parent="bBg2_2M-srpYD9WK9by4-152">
          <mxGeometry width="83" height="60" as="geometry">
            <mxRectangle width="83" height="60" as="alternateBounds" />
          </mxGeometry>
        </mxCell>
        <mxCell id="bBg2_2M-srpYD9WK9by4-154" value="2" style="connectable=0;recursiveResize=0;strokeColor=#6c8ebf;fillColor=#dae8fc;align=center;whiteSpace=wrap;html=1;" vertex="1" parent="bBg2_2M-srpYD9WK9by4-152">
          <mxGeometry x="83" width="84" height="60" as="geometry">
            <mxRectangle width="84" height="60" as="alternateBounds" />
          </mxGeometry>
        </mxCell>
        <mxCell id="bBg2_2M-srpYD9WK9by4-155" value="3" style="connectable=0;recursiveResize=0;strokeColor=#6c8ebf;fillColor=#dae8fc;align=center;whiteSpace=wrap;html=1;" vertex="1" parent="bBg2_2M-srpYD9WK9by4-152">
          <mxGeometry x="167" width="83" height="60" as="geometry">
            <mxRectangle width="83" height="60" as="alternateBounds" />
          </mxGeometry>
        </mxCell>
        <mxCell id="bBg2_2M-srpYD9WK9by4-156" style="shape=tableRow;horizontal=0;startSize=0;swimlaneHead=0;swimlaneBody=0;top=0;left=0;bottom=0;right=0;dropTarget=0;collapsible=0;recursiveResize=0;expand=0;fontStyle=0;fillColor=none;strokeColor=inherit;" vertex="1" parent="bBg2_2M-srpYD9WK9by4-151">
          <mxGeometry y="60" width="250" height="60" as="geometry" />
        </mxCell>
        <mxCell id="bBg2_2M-srpYD9WK9by4-157" value="4" style="connectable=0;recursiveResize=0;strokeColor=#82b366;fillColor=#d5e8d4;align=center;whiteSpace=wrap;html=1;" vertex="1" parent="bBg2_2M-srpYD9WK9by4-156">
          <mxGeometry width="83" height="60" as="geometry">
            <mxRectangle width="83" height="60" as="alternateBounds" />
          </mxGeometry>
        </mxCell>
        <mxCell id="bBg2_2M-srpYD9WK9by4-158" value="5" style="connectable=0;recursiveResize=0;strokeColor=#82b366;fillColor=#d5e8d4;align=center;whiteSpace=wrap;html=1;" vertex="1" parent="bBg2_2M-srpYD9WK9by4-156">
          <mxGeometry x="83" width="84" height="60" as="geometry">
            <mxRectangle width="84" height="60" as="alternateBounds" />
          </mxGeometry>
        </mxCell>
        <mxCell id="bBg2_2M-srpYD9WK9by4-159" value="6" style="connectable=0;recursiveResize=0;strokeColor=#82b366;fillColor=#d5e8d4;align=center;whiteSpace=wrap;html=1;" vertex="1" parent="bBg2_2M-srpYD9WK9by4-156">
          <mxGeometry x="167" width="83" height="60" as="geometry">
            <mxRectangle width="83" height="60" as="alternateBounds" />
          </mxGeometry>
        </mxCell>
        <mxCell id="bBg2_2M-srpYD9WK9by4-160" style="shape=tableRow;horizontal=0;startSize=0;swimlaneHead=0;swimlaneBody=0;top=0;left=0;bottom=0;right=0;dropTarget=0;collapsible=0;recursiveResize=0;expand=0;fontStyle=0;fillColor=none;strokeColor=inherit;" vertex="1" parent="bBg2_2M-srpYD9WK9by4-151">
          <mxGeometry y="120" width="250" height="60" as="geometry" />
        </mxCell>
        <mxCell id="bBg2_2M-srpYD9WK9by4-161" value="7" style="connectable=0;recursiveResize=0;strokeColor=#82b366;fillColor=#d5e8d4;align=center;whiteSpace=wrap;html=1;" vertex="1" parent="bBg2_2M-srpYD9WK9by4-160">
          <mxGeometry width="83" height="60" as="geometry">
            <mxRectangle width="83" height="60" as="alternateBounds" />
          </mxGeometry>
        </mxCell>
        <mxCell id="bBg2_2M-srpYD9WK9by4-162" value="8" style="connectable=0;recursiveResize=0;strokeColor=#82b366;fillColor=#d5e8d4;align=center;whiteSpace=wrap;html=1;" vertex="1" parent="bBg2_2M-srpYD9WK9by4-160">
          <mxGeometry x="83" width="84" height="60" as="geometry">
            <mxRectangle width="84" height="60" as="alternateBounds" />
          </mxGeometry>
        </mxCell>
        <mxCell id="bBg2_2M-srpYD9WK9by4-163" value="9" style="connectable=0;recursiveResize=0;strokeColor=#82b366;fillColor=#d5e8d4;align=center;whiteSpace=wrap;html=1;" vertex="1" parent="bBg2_2M-srpYD9WK9by4-160">
          <mxGeometry x="167" width="83" height="60" as="geometry">
            <mxRectangle width="83" height="60" as="alternateBounds" />
          </mxGeometry>
        </mxCell>
        <mxCell id="bBg2_2M-srpYD9WK9by4-165" value="" style="childLayout=tableLayout;recursiveResize=0;shadow=0;fillColor=none;" vertex="1" parent="1">
          <mxGeometry x="50" y="3360" width="250" height="180" as="geometry" />
        </mxCell>
        <mxCell id="bBg2_2M-srpYD9WK9by4-166" value="" style="shape=tableRow;horizontal=0;startSize=0;swimlaneHead=0;swimlaneBody=0;top=0;left=0;bottom=0;right=0;dropTarget=0;collapsible=0;recursiveResize=0;expand=0;fontStyle=0;fillColor=none;strokeColor=inherit;" vertex="1" parent="bBg2_2M-srpYD9WK9by4-165">
          <mxGeometry width="250" height="60" as="geometry" />
        </mxCell>
        <mxCell id="bBg2_2M-srpYD9WK9by4-167" value="1" style="connectable=0;recursiveResize=0;strokeColor=#82b366;fillColor=#d5e8d4;align=center;whiteSpace=wrap;html=1;" vertex="1" parent="bBg2_2M-srpYD9WK9by4-166">
          <mxGeometry width="83" height="60" as="geometry">
            <mxRectangle width="83" height="60" as="alternateBounds" />
          </mxGeometry>
        </mxCell>
        <mxCell id="bBg2_2M-srpYD9WK9by4-168" value="2" style="connectable=0;recursiveResize=0;strokeColor=#b85450;fillColor=#f8cecc;align=center;whiteSpace=wrap;html=1;" vertex="1" parent="bBg2_2M-srpYD9WK9by4-166">
          <mxGeometry x="83" width="84" height="60" as="geometry">
            <mxRectangle width="84" height="60" as="alternateBounds" />
          </mxGeometry>
        </mxCell>
        <mxCell id="bBg2_2M-srpYD9WK9by4-169" value="3" style="connectable=0;recursiveResize=0;strokeColor=#6c8ebf;fillColor=#dae8fc;align=center;whiteSpace=wrap;html=1;" vertex="1" parent="bBg2_2M-srpYD9WK9by4-166">
          <mxGeometry x="167" width="83" height="60" as="geometry">
            <mxRectangle width="83" height="60" as="alternateBounds" />
          </mxGeometry>
        </mxCell>
        <mxCell id="bBg2_2M-srpYD9WK9by4-170" style="shape=tableRow;horizontal=0;startSize=0;swimlaneHead=0;swimlaneBody=0;top=0;left=0;bottom=0;right=0;dropTarget=0;collapsible=0;recursiveResize=0;expand=0;fontStyle=0;fillColor=none;strokeColor=inherit;" vertex="1" parent="bBg2_2M-srpYD9WK9by4-165">
          <mxGeometry y="60" width="250" height="60" as="geometry" />
        </mxCell>
        <mxCell id="bBg2_2M-srpYD9WK9by4-171" value="4" style="connectable=0;recursiveResize=0;strokeColor=#b85450;fillColor=#f8cecc;align=center;whiteSpace=wrap;html=1;" vertex="1" parent="bBg2_2M-srpYD9WK9by4-170">
          <mxGeometry width="83" height="60" as="geometry">
            <mxRectangle width="83" height="60" as="alternateBounds" />
          </mxGeometry>
        </mxCell>
        <mxCell id="bBg2_2M-srpYD9WK9by4-172" value="5" style="connectable=0;recursiveResize=0;strokeColor=#82b366;fillColor=#d5e8d4;align=center;whiteSpace=wrap;html=1;" vertex="1" parent="bBg2_2M-srpYD9WK9by4-170">
          <mxGeometry x="83" width="84" height="60" as="geometry">
            <mxRectangle width="84" height="60" as="alternateBounds" />
          </mxGeometry>
        </mxCell>
        <mxCell id="bBg2_2M-srpYD9WK9by4-173" value="6" style="connectable=0;recursiveResize=0;strokeColor=#6c8ebf;fillColor=#dae8fc;align=center;whiteSpace=wrap;html=1;" vertex="1" parent="bBg2_2M-srpYD9WK9by4-170">
          <mxGeometry x="167" width="83" height="60" as="geometry">
            <mxRectangle width="83" height="60" as="alternateBounds" />
          </mxGeometry>
        </mxCell>
        <mxCell id="bBg2_2M-srpYD9WK9by4-174" style="shape=tableRow;horizontal=0;startSize=0;swimlaneHead=0;swimlaneBody=0;top=0;left=0;bottom=0;right=0;dropTarget=0;collapsible=0;recursiveResize=0;expand=0;fontStyle=0;fillColor=none;strokeColor=inherit;" vertex="1" parent="bBg2_2M-srpYD9WK9by4-165">
          <mxGeometry y="120" width="250" height="60" as="geometry" />
        </mxCell>
        <mxCell id="bBg2_2M-srpYD9WK9by4-175" value="7" style="connectable=0;recursiveResize=0;strokeColor=#b85450;fillColor=#f8cecc;align=center;whiteSpace=wrap;html=1;" vertex="1" parent="bBg2_2M-srpYD9WK9by4-174">
          <mxGeometry width="83" height="60" as="geometry">
            <mxRectangle width="83" height="60" as="alternateBounds" />
          </mxGeometry>
        </mxCell>
        <mxCell id="bBg2_2M-srpYD9WK9by4-176" value="8" style="connectable=0;recursiveResize=0;strokeColor=#6c8ebf;fillColor=#dae8fc;align=center;whiteSpace=wrap;html=1;" vertex="1" parent="bBg2_2M-srpYD9WK9by4-174">
          <mxGeometry x="83" width="84" height="60" as="geometry">
            <mxRectangle width="84" height="60" as="alternateBounds" />
          </mxGeometry>
        </mxCell>
        <mxCell id="bBg2_2M-srpYD9WK9by4-177" value="9" style="connectable=0;recursiveResize=0;strokeColor=#82b366;fillColor=#d5e8d4;align=center;whiteSpace=wrap;html=1;" vertex="1" parent="bBg2_2M-srpYD9WK9by4-174">
          <mxGeometry x="167" width="83" height="60" as="geometry">
            <mxRectangle width="83" height="60" as="alternateBounds" />
          </mxGeometry>
        </mxCell>
        <mxCell id="bBg2_2M-srpYD9WK9by4-178" value="" style="childLayout=tableLayout;recursiveResize=0;shadow=0;fillColor=none;" vertex="1" parent="1">
          <mxGeometry x="300" y="3360" width="250" height="180" as="geometry" />
        </mxCell>
        <mxCell id="bBg2_2M-srpYD9WK9by4-179" value="" style="shape=tableRow;horizontal=0;startSize=0;swimlaneHead=0;swimlaneBody=0;top=0;left=0;bottom=0;right=0;dropTarget=0;collapsible=0;recursiveResize=0;expand=0;fontStyle=0;fillColor=none;strokeColor=inherit;" vertex="1" parent="bBg2_2M-srpYD9WK9by4-178">
          <mxGeometry width="250" height="60" as="geometry" />
        </mxCell>
        <mxCell id="bBg2_2M-srpYD9WK9by4-180" value="a" style="connectable=0;recursiveResize=0;strokeColor=#d6b656;fillColor=#fff2cc;align=center;whiteSpace=wrap;html=1;" vertex="1" parent="bBg2_2M-srpYD9WK9by4-179">
          <mxGeometry width="83" height="60" as="geometry">
            <mxRectangle width="83" height="60" as="alternateBounds" />
          </mxGeometry>
        </mxCell>
        <mxCell id="bBg2_2M-srpYD9WK9by4-181" value="b" style="connectable=0;recursiveResize=0;strokeColor=#d6b656;fillColor=#fff2cc;align=center;whiteSpace=wrap;html=1;" vertex="1" parent="bBg2_2M-srpYD9WK9by4-179">
          <mxGeometry x="83" width="84" height="60" as="geometry">
            <mxRectangle width="84" height="60" as="alternateBounds" />
          </mxGeometry>
        </mxCell>
        <mxCell id="bBg2_2M-srpYD9WK9by4-182" value="c" style="connectable=0;recursiveResize=0;strokeColor=#d6b656;fillColor=#fff2cc;align=center;whiteSpace=wrap;html=1;" vertex="1" parent="bBg2_2M-srpYD9WK9by4-179">
          <mxGeometry x="167" width="83" height="60" as="geometry">
            <mxRectangle width="83" height="60" as="alternateBounds" />
          </mxGeometry>
        </mxCell>
        <mxCell id="bBg2_2M-srpYD9WK9by4-183" style="shape=tableRow;horizontal=0;startSize=0;swimlaneHead=0;swimlaneBody=0;top=0;left=0;bottom=0;right=0;dropTarget=0;collapsible=0;recursiveResize=0;expand=0;fontStyle=0;fillColor=none;strokeColor=inherit;" vertex="1" parent="bBg2_2M-srpYD9WK9by4-178">
          <mxGeometry y="60" width="250" height="60" as="geometry" />
        </mxCell>
        <mxCell id="bBg2_2M-srpYD9WK9by4-184" value="d" style="connectable=0;recursiveResize=0;strokeColor=#d6b656;fillColor=#fff2cc;align=center;whiteSpace=wrap;html=1;" vertex="1" parent="bBg2_2M-srpYD9WK9by4-183">
          <mxGeometry width="83" height="60" as="geometry">
            <mxRectangle width="83" height="60" as="alternateBounds" />
          </mxGeometry>
        </mxCell>
        <mxCell id="bBg2_2M-srpYD9WK9by4-185" value="e" style="connectable=0;recursiveResize=0;strokeColor=#d6b656;fillColor=#fff2cc;align=center;whiteSpace=wrap;html=1;" vertex="1" parent="bBg2_2M-srpYD9WK9by4-183">
          <mxGeometry x="83" width="84" height="60" as="geometry">
            <mxRectangle width="84" height="60" as="alternateBounds" />
          </mxGeometry>
        </mxCell>
        <mxCell id="bBg2_2M-srpYD9WK9by4-186" value="f" style="connectable=0;recursiveResize=0;strokeColor=#d6b656;fillColor=#fff2cc;align=center;whiteSpace=wrap;html=1;" vertex="1" parent="bBg2_2M-srpYD9WK9by4-183">
          <mxGeometry x="167" width="83" height="60" as="geometry">
            <mxRectangle width="83" height="60" as="alternateBounds" />
          </mxGeometry>
        </mxCell>
        <mxCell id="bBg2_2M-srpYD9WK9by4-187" style="shape=tableRow;horizontal=0;startSize=0;swimlaneHead=0;swimlaneBody=0;top=0;left=0;bottom=0;right=0;dropTarget=0;collapsible=0;recursiveResize=0;expand=0;fontStyle=0;fillColor=none;strokeColor=inherit;" vertex="1" parent="bBg2_2M-srpYD9WK9by4-178">
          <mxGeometry y="120" width="250" height="60" as="geometry" />
        </mxCell>
        <mxCell id="bBg2_2M-srpYD9WK9by4-188" value="g" style="connectable=0;recursiveResize=0;strokeColor=#d6b656;fillColor=#fff2cc;align=center;whiteSpace=wrap;html=1;" vertex="1" parent="bBg2_2M-srpYD9WK9by4-187">
          <mxGeometry width="83" height="60" as="geometry">
            <mxRectangle width="83" height="60" as="alternateBounds" />
          </mxGeometry>
        </mxCell>
        <mxCell id="bBg2_2M-srpYD9WK9by4-189" value="h" style="connectable=0;recursiveResize=0;strokeColor=#d6b656;fillColor=#fff2cc;align=center;whiteSpace=wrap;html=1;" vertex="1" parent="bBg2_2M-srpYD9WK9by4-187">
          <mxGeometry x="83" width="84" height="60" as="geometry">
            <mxRectangle width="84" height="60" as="alternateBounds" />
          </mxGeometry>
        </mxCell>
        <mxCell id="bBg2_2M-srpYD9WK9by4-190" value="i" style="connectable=0;recursiveResize=0;strokeColor=#d6b656;fillColor=#fff2cc;align=center;whiteSpace=wrap;html=1;" vertex="1" parent="bBg2_2M-srpYD9WK9by4-187">
          <mxGeometry x="167" width="83" height="60" as="geometry">
            <mxRectangle width="83" height="60" as="alternateBounds" />
          </mxGeometry>
        </mxCell>
        <mxCell id="bBg2_2M-srpYD9WK9by4-191" value="" style="childLayout=tableLayout;recursiveResize=0;shadow=0;fillColor=none;" vertex="1" parent="1">
          <mxGeometry x="50" y="3640" width="250" height="180" as="geometry" />
        </mxCell>
        <mxCell id="bBg2_2M-srpYD9WK9by4-192" value="" style="shape=tableRow;horizontal=0;startSize=0;swimlaneHead=0;swimlaneBody=0;top=0;left=0;bottom=0;right=0;dropTarget=0;collapsible=0;recursiveResize=0;expand=0;fontStyle=0;fillColor=none;strokeColor=inherit;" vertex="1" parent="bBg2_2M-srpYD9WK9by4-191">
          <mxGeometry width="250" height="60" as="geometry" />
        </mxCell>
        <mxCell id="bBg2_2M-srpYD9WK9by4-193" value="1" style="connectable=0;recursiveResize=0;strokeColor=#d6b656;fillColor=#fff2cc;align=center;whiteSpace=wrap;html=1;" vertex="1" parent="bBg2_2M-srpYD9WK9by4-192">
          <mxGeometry width="83" height="60" as="geometry">
            <mxRectangle width="83" height="60" as="alternateBounds" />
          </mxGeometry>
        </mxCell>
        <mxCell id="bBg2_2M-srpYD9WK9by4-194" value="2" style="connectable=0;recursiveResize=0;strokeColor=#d6b656;fillColor=#fff2cc;align=center;whiteSpace=wrap;html=1;" vertex="1" parent="bBg2_2M-srpYD9WK9by4-192">
          <mxGeometry x="83" width="84" height="60" as="geometry">
            <mxRectangle width="84" height="60" as="alternateBounds" />
          </mxGeometry>
        </mxCell>
        <mxCell id="bBg2_2M-srpYD9WK9by4-195" value="3" style="connectable=0;recursiveResize=0;strokeColor=#d6b656;fillColor=#fff2cc;align=center;whiteSpace=wrap;html=1;" vertex="1" parent="bBg2_2M-srpYD9WK9by4-192">
          <mxGeometry x="167" width="83" height="60" as="geometry">
            <mxRectangle width="83" height="60" as="alternateBounds" />
          </mxGeometry>
        </mxCell>
        <mxCell id="bBg2_2M-srpYD9WK9by4-196" style="shape=tableRow;horizontal=0;startSize=0;swimlaneHead=0;swimlaneBody=0;top=0;left=0;bottom=0;right=0;dropTarget=0;collapsible=0;recursiveResize=0;expand=0;fontStyle=0;fillColor=none;strokeColor=inherit;" vertex="1" parent="bBg2_2M-srpYD9WK9by4-191">
          <mxGeometry y="60" width="250" height="60" as="geometry" />
        </mxCell>
        <mxCell id="bBg2_2M-srpYD9WK9by4-197" value="4" style="connectable=0;recursiveResize=0;strokeColor=#d6b656;fillColor=#fff2cc;align=center;whiteSpace=wrap;html=1;" vertex="1" parent="bBg2_2M-srpYD9WK9by4-196">
          <mxGeometry width="83" height="60" as="geometry">
            <mxRectangle width="83" height="60" as="alternateBounds" />
          </mxGeometry>
        </mxCell>
        <mxCell id="bBg2_2M-srpYD9WK9by4-198" value="5" style="connectable=0;recursiveResize=0;strokeColor=#d6b656;fillColor=#fff2cc;align=center;whiteSpace=wrap;html=1;" vertex="1" parent="bBg2_2M-srpYD9WK9by4-196">
          <mxGeometry x="83" width="84" height="60" as="geometry">
            <mxRectangle width="84" height="60" as="alternateBounds" />
          </mxGeometry>
        </mxCell>
        <mxCell id="bBg2_2M-srpYD9WK9by4-199" value="6" style="connectable=0;recursiveResize=0;strokeColor=#d6b656;fillColor=#fff2cc;align=center;whiteSpace=wrap;html=1;" vertex="1" parent="bBg2_2M-srpYD9WK9by4-196">
          <mxGeometry x="167" width="83" height="60" as="geometry">
            <mxRectangle width="83" height="60" as="alternateBounds" />
          </mxGeometry>
        </mxCell>
        <mxCell id="bBg2_2M-srpYD9WK9by4-200" style="shape=tableRow;horizontal=0;startSize=0;swimlaneHead=0;swimlaneBody=0;top=0;left=0;bottom=0;right=0;dropTarget=0;collapsible=0;recursiveResize=0;expand=0;fontStyle=0;fillColor=none;strokeColor=inherit;" vertex="1" parent="bBg2_2M-srpYD9WK9by4-191">
          <mxGeometry y="120" width="250" height="60" as="geometry" />
        </mxCell>
        <mxCell id="bBg2_2M-srpYD9WK9by4-201" value="7" style="connectable=0;recursiveResize=0;strokeColor=#d6b656;fillColor=#fff2cc;align=center;whiteSpace=wrap;html=1;" vertex="1" parent="bBg2_2M-srpYD9WK9by4-200">
          <mxGeometry width="83" height="60" as="geometry">
            <mxRectangle width="83" height="60" as="alternateBounds" />
          </mxGeometry>
        </mxCell>
        <mxCell id="bBg2_2M-srpYD9WK9by4-202" value="8" style="connectable=0;recursiveResize=0;strokeColor=#d6b656;fillColor=#fff2cc;align=center;whiteSpace=wrap;html=1;" vertex="1" parent="bBg2_2M-srpYD9WK9by4-200">
          <mxGeometry x="83" width="84" height="60" as="geometry">
            <mxRectangle width="84" height="60" as="alternateBounds" />
          </mxGeometry>
        </mxCell>
        <mxCell id="bBg2_2M-srpYD9WK9by4-203" value="9" style="connectable=0;recursiveResize=0;strokeColor=#d6b656;fillColor=#fff2cc;align=center;whiteSpace=wrap;html=1;" vertex="1" parent="bBg2_2M-srpYD9WK9by4-200">
          <mxGeometry x="167" width="83" height="60" as="geometry">
            <mxRectangle width="83" height="60" as="alternateBounds" />
          </mxGeometry>
        </mxCell>
        <mxCell id="bBg2_2M-srpYD9WK9by4-221" value="" style="shape=flexArrow;endArrow=classic;html=1;rounded=0;fontFamily=Helvetica;fontSize=12;fontColor=default;exitX=0;exitY=1;exitDx=0;exitDy=0;entryX=0;entryY=0;entryDx=0;entryDy=0;" edge="1" parent="1" source="bBg2_2M-srpYD9WK9by4-187">
          <mxGeometry width="50" height="50" relative="1" as="geometry">
            <mxPoint x="310" y="3520" as="sourcePoint" />
            <mxPoint x="300" y="3640" as="targetPoint" />
          </mxGeometry>
        </mxCell>
        <mxCell id="bBg2_2M-srpYD9WK9by4-226" value="" style="childLayout=tableLayout;recursiveResize=0;shadow=0;fillColor=none;" vertex="1" parent="1">
          <mxGeometry x="300" y="3640" width="250" height="180" as="geometry" />
        </mxCell>
        <mxCell id="bBg2_2M-srpYD9WK9by4-227" value="" style="shape=tableRow;horizontal=0;startSize=0;swimlaneHead=0;swimlaneBody=0;top=0;left=0;bottom=0;right=0;dropTarget=0;collapsible=0;recursiveResize=0;expand=0;fontStyle=0;fillColor=none;strokeColor=inherit;" vertex="1" parent="bBg2_2M-srpYD9WK9by4-226">
          <mxGeometry width="250" height="60" as="geometry" />
        </mxCell>
        <mxCell id="bBg2_2M-srpYD9WK9by4-228" value="a" style="connectable=0;recursiveResize=0;strokeColor=#6c8ebf;fillColor=#dae8fc;align=center;whiteSpace=wrap;html=1;" vertex="1" parent="bBg2_2M-srpYD9WK9by4-227">
          <mxGeometry width="83" height="60" as="geometry">
            <mxRectangle width="83" height="60" as="alternateBounds" />
          </mxGeometry>
        </mxCell>
        <mxCell id="bBg2_2M-srpYD9WK9by4-229" value="b" style="connectable=0;recursiveResize=0;strokeColor=#6c8ebf;fillColor=#dae8fc;align=center;whiteSpace=wrap;html=1;" vertex="1" parent="bBg2_2M-srpYD9WK9by4-227">
          <mxGeometry x="83" width="84" height="60" as="geometry">
            <mxRectangle width="84" height="60" as="alternateBounds" />
          </mxGeometry>
        </mxCell>
        <mxCell id="bBg2_2M-srpYD9WK9by4-230" value="c" style="connectable=0;recursiveResize=0;strokeColor=#6c8ebf;fillColor=#dae8fc;align=center;whiteSpace=wrap;html=1;" vertex="1" parent="bBg2_2M-srpYD9WK9by4-227">
          <mxGeometry x="167" width="83" height="60" as="geometry">
            <mxRectangle width="83" height="60" as="alternateBounds" />
          </mxGeometry>
        </mxCell>
        <mxCell id="bBg2_2M-srpYD9WK9by4-231" style="shape=tableRow;horizontal=0;startSize=0;swimlaneHead=0;swimlaneBody=0;top=0;left=0;bottom=0;right=0;dropTarget=0;collapsible=0;recursiveResize=0;expand=0;fontStyle=0;fillColor=none;strokeColor=inherit;" vertex="1" parent="bBg2_2M-srpYD9WK9by4-226">
          <mxGeometry y="60" width="250" height="60" as="geometry" />
        </mxCell>
        <mxCell id="bBg2_2M-srpYD9WK9by4-232" value="d" style="connectable=0;recursiveResize=0;strokeColor=#82b366;fillColor=#d5e8d4;align=center;whiteSpace=wrap;html=1;" vertex="1" parent="bBg2_2M-srpYD9WK9by4-231">
          <mxGeometry width="83" height="60" as="geometry">
            <mxRectangle width="83" height="60" as="alternateBounds" />
          </mxGeometry>
        </mxCell>
        <mxCell id="bBg2_2M-srpYD9WK9by4-233" value="e" style="connectable=0;recursiveResize=0;strokeColor=#82b366;fillColor=#d5e8d4;align=center;whiteSpace=wrap;html=1;" vertex="1" parent="bBg2_2M-srpYD9WK9by4-231">
          <mxGeometry x="83" width="84" height="60" as="geometry">
            <mxRectangle width="84" height="60" as="alternateBounds" />
          </mxGeometry>
        </mxCell>
        <mxCell id="bBg2_2M-srpYD9WK9by4-234" value="f" style="connectable=0;recursiveResize=0;strokeColor=#82b366;fillColor=#d5e8d4;align=center;whiteSpace=wrap;html=1;" vertex="1" parent="bBg2_2M-srpYD9WK9by4-231">
          <mxGeometry x="167" width="83" height="60" as="geometry">
            <mxRectangle width="83" height="60" as="alternateBounds" />
          </mxGeometry>
        </mxCell>
        <mxCell id="bBg2_2M-srpYD9WK9by4-235" style="shape=tableRow;horizontal=0;startSize=0;swimlaneHead=0;swimlaneBody=0;top=0;left=0;bottom=0;right=0;dropTarget=0;collapsible=0;recursiveResize=0;expand=0;fontStyle=0;fillColor=none;strokeColor=inherit;" vertex="1" parent="bBg2_2M-srpYD9WK9by4-226">
          <mxGeometry y="120" width="250" height="60" as="geometry" />
        </mxCell>
        <mxCell id="bBg2_2M-srpYD9WK9by4-236" value="g" style="connectable=0;recursiveResize=0;strokeColor=#82b366;fillColor=#d5e8d4;align=center;whiteSpace=wrap;html=1;" vertex="1" parent="bBg2_2M-srpYD9WK9by4-235">
          <mxGeometry width="83" height="60" as="geometry">
            <mxRectangle width="83" height="60" as="alternateBounds" />
          </mxGeometry>
        </mxCell>
        <mxCell id="bBg2_2M-srpYD9WK9by4-237" value="h" style="connectable=0;recursiveResize=0;strokeColor=#82b366;fillColor=#d5e8d4;align=center;whiteSpace=wrap;html=1;" vertex="1" parent="bBg2_2M-srpYD9WK9by4-235">
          <mxGeometry x="83" width="84" height="60" as="geometry">
            <mxRectangle width="84" height="60" as="alternateBounds" />
          </mxGeometry>
        </mxCell>
        <mxCell id="bBg2_2M-srpYD9WK9by4-238" value="i" style="connectable=0;recursiveResize=0;strokeColor=#82b366;fillColor=#d5e8d4;align=center;whiteSpace=wrap;html=1;" vertex="1" parent="bBg2_2M-srpYD9WK9by4-235">
          <mxGeometry x="167" width="83" height="60" as="geometry">
            <mxRectangle width="83" height="60" as="alternateBounds" />
          </mxGeometry>
        </mxCell>
        <mxCell id="bBg2_2M-srpYD9WK9by4-223" value="可用内存" style="connectable=0;recursiveResize=0;strokeColor=#82b366;fillColor=#d5e8d4;align=center;whiteSpace=wrap;html=1;" vertex="1" parent="1">
          <mxGeometry x="330" y="3560" width="83" height="60" as="geometry">
            <mxRectangle width="83" height="60" as="alternateBounds" />
          </mxGeometry>
        </mxCell>
        <mxCell id="bBg2_2M-srpYD9WK9by4-224" value="存活对象" style="connectable=0;recursiveResize=0;strokeColor=#6c8ebf;fillColor=#dae8fc;align=center;whiteSpace=wrap;html=1;" vertex="1" parent="1">
          <mxGeometry x="496" y="3560" width="83" height="60" as="geometry">
            <mxRectangle width="83" height="60" as="alternateBounds" />
          </mxGeometry>
        </mxCell>
        <mxCell id="bBg2_2M-srpYD9WK9by4-225" value="回收对象" style="connectable=0;recursiveResize=0;strokeColor=#b85450;fillColor=#f8cecc;align=center;whiteSpace=wrap;html=1;" vertex="1" parent="1">
          <mxGeometry x="579" y="3560" width="83" height="60" as="geometry">
            <mxRectangle width="83" height="60" as="alternateBounds" />
          </mxGeometry>
        </mxCell>
        <mxCell id="bBg2_2M-srpYD9WK9by4-239" value="保留内存" style="connectable=0;recursiveResize=0;strokeColor=#d6b656;fillColor=#fff2cc;align=center;whiteSpace=wrap;html=1;" vertex="1" parent="1">
          <mxGeometry x="413" y="3560" width="83" height="60" as="geometry">
            <mxRectangle width="83" height="60" as="alternateBounds" />
          </mxGeometry>
        </mxCell>
        <mxCell id="bBg2_2M-srpYD9WK9by4-248" style="edgeStyle=orthogonalEdgeStyle;rounded=0;orthogonalLoop=1;jettySize=auto;html=1;exitX=1;exitY=0.5;exitDx=0;exitDy=0;entryX=0;entryY=0.5;entryDx=0;entryDy=0;fontFamily=Helvetica;fontSize=12;fontColor=default;" edge="1" parent="1" source="bBg2_2M-srpYD9WK9by4-240" target="bBg2_2M-srpYD9WK9by4-242">
          <mxGeometry relative="1" as="geometry" />
        </mxCell>
        <mxCell id="bBg2_2M-srpYD9WK9by4-240" value="WebAppClassLoader" style="rounded=1;whiteSpace=wrap;html=1;shadow=0;strokeColor=#6c8ebf;align=center;verticalAlign=middle;fontFamily=Helvetica;fontSize=12;fillColor=#dae8fc;" vertex="1" parent="1">
          <mxGeometry x="86" y="3944" width="120" height="60" as="geometry" />
        </mxCell>
        <mxCell id="bBg2_2M-srpYD9WK9by4-250" style="edgeStyle=orthogonalEdgeStyle;rounded=0;orthogonalLoop=1;jettySize=auto;html=1;exitX=1;exitY=0.5;exitDx=0;exitDy=0;entryX=0;entryY=0.5;entryDx=0;entryDy=0;fontFamily=Helvetica;fontSize=12;fontColor=default;" edge="1" parent="1" source="bBg2_2M-srpYD9WK9by4-241" target="bBg2_2M-srpYD9WK9by4-243">
          <mxGeometry relative="1" as="geometry" />
        </mxCell>
        <mxCell id="bBg2_2M-srpYD9WK9by4-241" value="CatalinaClassLoader" style="rounded=1;whiteSpace=wrap;html=1;shadow=0;strokeColor=#6c8ebf;align=center;verticalAlign=middle;fontFamily=Helvetica;fontSize=12;fillColor=#dae8fc;" vertex="1" parent="1">
          <mxGeometry x="250" y="4034" width="120" height="60" as="geometry" />
        </mxCell>
        <mxCell id="bBg2_2M-srpYD9WK9by4-249" style="edgeStyle=orthogonalEdgeStyle;rounded=0;orthogonalLoop=1;jettySize=auto;html=1;exitX=1;exitY=0.5;exitDx=0;exitDy=0;entryX=0;entryY=0.5;entryDx=0;entryDy=0;fontFamily=Helvetica;fontSize=12;fontColor=default;" edge="1" parent="1" source="bBg2_2M-srpYD9WK9by4-242" target="bBg2_2M-srpYD9WK9by4-243">
          <mxGeometry relative="1" as="geometry" />
        </mxCell>
        <mxCell id="bBg2_2M-srpYD9WK9by4-242" value="SharedClassLoader" style="rounded=1;whiteSpace=wrap;html=1;shadow=0;strokeColor=#6c8ebf;align=center;verticalAlign=middle;fontFamily=Helvetica;fontSize=12;fillColor=#dae8fc;" vertex="1" parent="1">
          <mxGeometry x="250" y="3944" width="120" height="60" as="geometry" />
        </mxCell>
        <mxCell id="bBg2_2M-srpYD9WK9by4-251" style="edgeStyle=orthogonalEdgeStyle;rounded=0;orthogonalLoop=1;jettySize=auto;html=1;exitX=1;exitY=0.5;exitDx=0;exitDy=0;entryX=0;entryY=0.5;entryDx=0;entryDy=0;fontFamily=Helvetica;fontSize=12;fontColor=default;" edge="1" parent="1" source="bBg2_2M-srpYD9WK9by4-243" target="bBg2_2M-srpYD9WK9by4-244">
          <mxGeometry relative="1" as="geometry" />
        </mxCell>
        <mxCell id="bBg2_2M-srpYD9WK9by4-243" value="CommonClassLoader" style="rounded=1;whiteSpace=wrap;html=1;shadow=0;strokeColor=#6c8ebf;align=center;verticalAlign=middle;fontFamily=Helvetica;fontSize=12;fillColor=#dae8fc;" vertex="1" parent="1">
          <mxGeometry x="427" y="3984" width="120" height="60" as="geometry" />
        </mxCell>
        <mxCell id="bBg2_2M-srpYD9WK9by4-252" style="edgeStyle=orthogonalEdgeStyle;rounded=0;orthogonalLoop=1;jettySize=auto;html=1;exitX=1;exitY=0.5;exitDx=0;exitDy=0;entryX=0;entryY=0.5;entryDx=0;entryDy=0;fontFamily=Helvetica;fontSize=12;fontColor=default;" edge="1" parent="1" source="bBg2_2M-srpYD9WK9by4-244" target="bBg2_2M-srpYD9WK9by4-245">
          <mxGeometry relative="1" as="geometry" />
        </mxCell>
        <mxCell id="bBg2_2M-srpYD9WK9by4-244" value="AppClassLoader" style="rounded=1;whiteSpace=wrap;html=1;shadow=0;strokeColor=#82b366;align=center;verticalAlign=middle;fontFamily=Helvetica;fontSize=12;fillColor=#d5e8d4;" vertex="1" parent="1">
          <mxGeometry x="577" y="3984" width="120" height="60" as="geometry" />
        </mxCell>
        <mxCell id="bBg2_2M-srpYD9WK9by4-253" value="" style="edgeStyle=orthogonalEdgeStyle;rounded=0;orthogonalLoop=1;jettySize=auto;html=1;fontFamily=Helvetica;fontSize=12;fontColor=default;" edge="1" parent="1" source="bBg2_2M-srpYD9WK9by4-245" target="bBg2_2M-srpYD9WK9by4-246">
          <mxGeometry relative="1" as="geometry" />
        </mxCell>
        <mxCell id="bBg2_2M-srpYD9WK9by4-245" value="ExtensionClassLoader" style="rounded=1;whiteSpace=wrap;html=1;shadow=0;strokeColor=#d6b656;align=center;verticalAlign=middle;fontFamily=Helvetica;fontSize=12;fillColor=#fff2cc;" vertex="1" parent="1">
          <mxGeometry x="729" y="3984" width="120" height="60" as="geometry" />
        </mxCell>
        <mxCell id="bBg2_2M-srpYD9WK9by4-246" value="BootstrapClassLoader" style="rounded=1;whiteSpace=wrap;html=1;shadow=0;strokeColor=#b85450;align=center;verticalAlign=middle;fontFamily=Helvetica;fontSize=12;fillColor=#f8cecc;" vertex="1" parent="1">
          <mxGeometry x="881" y="3984" width="120" height="60" as="geometry" />
        </mxCell>
      </root>
    </mxGraphModel>
  </diagram>
</mxfile>
